<?xml version="1.0" encoding="UTF-8"?>
<svg id="Ebene_2" data-name="Ebene 2" xmlns="http://www.w3.org/2000/svg" viewBox="0 0 173.02 112.79">
  <defs>
    <style>
      .cls-1 {
        stroke-width: 4px;
      }

      .cls-1, .cls-2 {
        fill: #fff;
        stroke: #6c4429;
        stroke-miterlimit: 10;
      }

      .cls-2 {
        stroke-width: 8px;
      }
    </style>
  </defs>
  <g id="Icons">
    <g id="contact">
      <g id="call">
        <path class="cls-1" d="m11.61,28.45c.02.35.01.68-.04,1.01-.2,2.22.21,4.71,1.11,7.36,3.26,9.58,12.59,20.52,23.74,29.42,11.15,8.9,23.89,15.58,33.95,16.63,2.86.3,5.43.13,7.59-.6h0c.38-.13.76-.21,1.14-.24,13.27-2.17,14.03-10.55,13.68-14.25-6.94-3.61-15.22-4.18-19.16-4.23-7.76,10.89-15.18,9.83-15.2,9.83m0,0c-.94-.12-1.78-.5-2.46-1.06l-29.86-23.83h0c-1-.8-1.59-1.91-1.75-3.08h0c-.39-2.25-.5-8.22,6.45-16.03-.92-3.83-3.31-11.78-8.37-17.74-3.71.49-11.82,3.12-10.85,16.83m90.06,35.07c.02.07,6.62,23.35-20.94,27.88-3.42,1.11-7.24,1.38-11.3.96-11.94-1.25-26.5-8.73-38.94-18.66C18.05,63.76,7.53,51.22,3.66,39.85c-1.31-3.86-1.89-7.65-1.57-11.23C.54,3.2,20.49,2.02,24.08,2.01c1.34-.1,2.72.37,3.74,1.4l-.43.28.42-.26c9.27,9.35,12.31,23.7,12.79,26.22.4,1.58-.02,3.32-1.26,4.55h0s0,0,0,0c-4.4,4.37-5.51,6.86-5.75,8.05l26.88,21.45c1.09-.49,3.22-2.08,6.43-7.15.76-1.4,2.21-2.38,3.92-2.47h0c.34,0,16.25-.91,28.36,6.4,1.19.58,2.13,1.65,2.51,3.03"/>
      </g>
      <path id="mail" class="cls-2" d="m149.82,7.47H61.16c-19.53-.53-19.53.53-19,19v63.33c.53,21.64-1.58,18.47,19,19h88.66q19.53-.53,19-19V26.47c.53-19.53,1.58-18.47-19-19Zm-4.24,12.67l-40.09,30.08-40.09-30.08h80.17Zm10.58,75.99H54.83V28.05l46.86,35.15c1.08.82,2.41,1.27,3.8,1.27s2.72-.44,3.8-1.27l46.86-35.15v68.08Z"/>
    </g>
  </g>
</svg>