<?xml version="1.0" encoding="UTF-8"?>
<svg id="Ebene_2" data-name="Ebene 2" xmlns="http://www.w3.org/2000/svg" viewBox="0 0 133 133.2">
  <defs>
    <style>
      .cls-1 {
        fill: #fff;
        fill-rule: evenodd;
        opacity: .9;
        stroke: #d7cdc3;
        stroke-linecap: round;
        stroke-linejoin: bevel;
        stroke-width: 3px;
      }
    </style>
  </defs>
  <g id="Icons">
    <path id="fc" class="cls-1" d="m57.41,131.7c5.61,0,9.09-4.75,9.09-10.36v-28.43c0-5.61-4.55-10.16-10.16-10.16h-2.26c-2.11,0-3.83-1.69-3.83-3.82v-8.11c0-2.36,1.86-4.32,4.16-4.32h1.93c5.61,0,10.16-4.55,10.16-10.15v-10.16c0-11.22,9.09-20.32,20.31-20.32h12.19c2.24,0,4.06,1.82,4.06,4.07v8.12c0,2.24-1.81,4.06-4.06,4.06h-6.1c-5.6,0-10.15,4.55-10.15,10.16v4.07c0,5.6,4.55,10.15,10.15,10.15h7.27c2.29,0,3.64,1.95,3.01,4.32l-2.15,8.11c-.56,2.12-2.73,3.82-4.84,3.82h-3.28c-5.61,0-10.16,4.55-10.16,10.16v28.43c0,5.61,4.55,10.16,10.16,10.16h22.34c8.98,0,16.25-7.27,16.25-16.25V17.75c0-8.98-7.27-16.25-16.25-16.25H17.75C8.78,1.5,1.5,8.77,1.5,17.75v97.5c0,8.98,7.28,16.25,16.25,16.25l40.16.2m65.47-16.45c0,4.49-3.64,8.13-8.13,8.13h-20.32c-2.24,0-4.06-1.82-4.06-4.06v-24.37c0-2.25,1.81-4.07,4.06-4.07h2.41c5.26,0,10.31-4.21,11.31-9.54l2.28-12.17c1.1-5.88-2.63-10.79-8.4-10.79h-7.61c-2.24,0-4.06-1.82-4.06-4.06v-4.07h10.16c5.61,0,10.15-4.55,10.15-10.15v-12.19c0-5.61-4.54-10.15-10.15-10.15h-16.25c-14.59,0-26.41,11.81-26.41,26.4v10.16c0,2.23-1.82,4.06-4.06,4.06h-1.77c-5.76,0-10.42,4.91-10.42,10.79v12.17c0,5.33,4.26,9.54,9.52,9.54h2.67c2.23,0,4.06,1.81,4.06,4.07l.03,24.76c-1,5-6.77,3.89-9,4-.6.03-2.72-.06-3,0l-28.66-.32c-4.49,0-8.12-3.64-8.12-8.13V17.75c0-4.49,3.64-8.13,8.12-8.13h97.5c4.49,0,8.13,3.64,8.13,8.13v97.5Z"/>
  </g>
</svg>