<?xml version="1.0" encoding="UTF-8"?>
<svg id="Ebene_2" data-name="Ebene 2" xmlns="http://www.w3.org/2000/svg" viewBox="0 0 120 120">
  <defs>
    <style>
      .cls-1 {
        fill: #fff;
      }
    </style>
  </defs>
  <g id="Ebene_3" data-name="Ebene 3">
    <g id="clock">
      <path class="cls-1" d="m60,0C26.87,0,0,26.87,0,60s26.87,60,60,60,60-26.87,60-60c-.05-33.13-26.87-60-60-60Zm0,114.78c-30.26,0-54.78-24.52-54.78-54.78S29.74,5.22,60,5.22s54.78,24.52,54.78,54.78-24.52,54.73-54.78,54.78Z"/>
      <path class="cls-1" d="m62.61,60.52V23.48c0-1.46-1.15-2.61-2.61-2.61s-2.61,1.15-2.61,2.61v38.19c0,.73.31,1.41.83,1.88l26.09,24.42c.47.47,1.1.73,1.77.73,1.46,0,2.61-1.2,2.56-2.66,0-.68-.31-1.36-.78-1.83,0,0-25.25-23.69-25.25-23.69Z"/>
    </g>
  </g>
</svg>