<?xml version="1.0" encoding="UTF-8"?>
<svg id="Ebene_2" data-name="Ebene 2" xmlns="http://www.w3.org/2000/svg" viewBox="0 0 64.12 64.08">
  <defs>
    <style>
      .cls-1 {
        fill: #fff;
        fill-rule: evenodd;
        opacity: .88;
      }
    </style>
  </defs>
  <g id="Ebene_1-2" data-name="Ebene 1">
    <g>
      <path class="cls-1" d="m47.81,28.69c1.86,8.64-3.65,17.15-12.29,19.01-8.64,1.86-17.15-3.65-19.01-12.29-1.86-8.64,3.65-17.15,12.29-19.01.1-.02.19-.03.29-.05l-.29.06c1.08-.23,2.14.46,2.38,1.54.23,1.08-.46,2.14-1.54,2.38h0s0,0,0,0c-6.48,1.39-10.6,7.77-9.21,14.25,1.39,6.48,7.77,10.6,14.25,9.21,6.48-1.39,10.6-7.77,9.21-14.25,0,0,0,0,0,0h0c-.23-1.08.43,3,1.51,2.77-1.67,5.85.86,6.48,2.4-3.61l-.06-.29c.02.1.05.19.07.28h0Z"/>
      <path class="cls-1" d="m16.26,34.38c-1.26-8.75,4.81-16.86,13.56-18.12,8.75-1.26,16.86,4.81,18.12,13.56s-4.81,16.86-13.56,18.12c-.1.01-.19.01-.29.03l.3-.04c-1.09.16-2.11-.6-2.26-1.69-.16-1.09.6-2.11,1.69-2.27h0s0,0,0,0c6.56-.94,11.11-7.03,10.16-13.59-.94-6.56-7.03-11.11-13.59-10.17-6.56.94-11.11,7.03-10.16,13.59,0,0,0,0,0,0h0c.16,1.1-.23-3.02-1.32-2.86,2.07-5.72-.42-6.53-2.64,3.44l.04.3c-.01-.1-.04-.19-.06-.29h0Z"/>
      <path class="cls-1" d="m48.11,13.09c0-1.66,1.35-3,3.01-3s2.97,1.32,3,2.96v.09c-.03,1.64-1.36,2.96-3,2.96s-3.01-1.35-3.01-3.01h0Z"/>
      <path class="cls-1" d="m58.78,58.6c-3.48,3.51-8.3,5.48-16.65,5.48h-20.03c-8.35,0-13.17-1.97-16.65-5.48C2.03,55.14.12,50.3.12,42.1v-20.03C.12,13.87,2.03,9.03,5.46,5.56,8.93,2.05,13.76.08,22.1.08h20.03c8.35,0,13.17,1.97,16.65,5.48.22.22.43.47.63.71.42.37.69.9.69,1.51,0,1.11-.9,2-2,2-.6,0-1.14-.27-1.51-.7l-.03.02c-.21-.24-.4-.5-.63-.73-3.04-3.08-7.53-4.28-14.84-4.28h-18c-7.3,0-11.78,1.21-14.83,4.28-3,3.03-4.17,7.54-4.17,14.71v18c0,7.18,1.17,11.67,4.17,14.7,3.04,3.08,7.52,4.3,14.83,4.3h18c7.3,0,11.8-1.22,14.84-4.29,3-3.03,4.16-7.52,4.16-14.7v-18c0-1.75-.07-3.33-.22-4.78h0c-.11-1.11.69-2.09,1.8-2.21,1.11-.11,2.1.69,2.21,1.8,0,.03,0,.06,0,.08h0c.12,1.27.2,2.61.2,4.09v20.02c0,8.2-1.91,13.04-5.34,16.51h0Z"/>
      <path class="cls-1" d="m5.36,5.47C8.84,1.96,13.66,0,22.01,0h20.03c8.34.01,13.17,1.98,16.64,5.5,3.43,3.47,5.34,8.31,5.33,16.51v20.03c-.01,8.2-1.92,13.04-5.36,16.5-3.48,3.51-8.3,5.48-16.65,5.47h-20.02c-8.35-.01-13.17-1.98-16.65-5.5-.22-.22-.43-.47-.63-.71-.42-.37-.69-.9-.69-1.51,0-1.1.9-2,2-2,.6,0,1.14.27,1.51.7l.03-.02c.21.25.4.5.63.73,3.04,3.08,7.53,4.29,14.83,4.29h18c7.3.01,11.78-1.19,14.83-4.27,3-3.03,4.17-7.53,4.18-14.71v-18c.01-7.18-1.15-11.67-4.16-14.71-3.04-3.08-7.52-4.3-14.82-4.3h-18c-7.3-.01-11.8,1.21-14.84,4.28-3,3.03-4.16,7.52-4.17,14.7v18c0,1.75.06,3.33.21,4.78h0c.11,1.11-.69,2.09-1.8,2.21-1.11.11-2.1-.69-2.21-1.8,0-.03,0-.06,0-.08h0C.08,44.82,0,43.48,0,42v-20.02C.01,13.77,1.93,8.94,5.36,5.47h0Z"/>
    </g>
  </g>
</svg>