<?xml version="1.0" encoding="UTF-8"?>
<!DOCTYPE svg PUBLIC "-//W3C//DTD SVG 1.1//EN" "http://www.w3.org/Graphics/SVG/1.1/DTD/svg11.dtd">
<!-- Creator: CorelDRAW -->
<svg xmlns="http://www.w3.org/2000/svg" xml:space="preserve" width="2048px" height="2048px" style="shape-rendering:geometricPrecision; text-rendering:geometricPrecision; image-rendering:optimizeQuality; fill-rule:evenodd; clip-rule:evenodd"
viewBox="0 0 2048 2048"
 xmlns:xlink="http://www.w3.org/1999/xlink">
 <defs>
  <style type="text/css">
   <![CDATA[
    .fil1 {fill:none}
    .fil0 {fill:#212121;fill-rule:nonzero}
   ]]>
  </style>
 </defs>
 <g id="Layer_x0020_1">
  <metadata id="CorelCorpID_0Corel-Layer"/>
  <path class="fil0" d="M671.999 255.998l704.001 0c44.0327,0 84.0414,17.9917 113.026,46.9748 28.9831,28.9843 46.9748,68.993 46.9748,113.026l0 95.9977c0,17.6728 -14.328,32.0008 -32.0008,32.0008l-16.0618 0 0 960 16.0618 0c17.6728,0 32.0008,14.328 32.0008,32.0008l0 96.0024c0,44.0327 -17.9917,84.0414 -46.9748,113.026 -28.9843,28.9831 -68.993,46.9748 -113.026,46.9748l-704.001 0c-44.0327,0 -84.0414,-17.9917 -113.026,-46.9748 -28.9831,-28.9843 -46.9748,-68.993 -46.9748,-113.026l0 -96.0024c0,-17.6728 14.328,-32.0008 32.0008,-32.0008l16.0606 0 0 -960 -16.0606 0c-17.6728,0 -32.0008,-14.328 -32.0008,-32.0008l0 -95.9977c0,-44.0327 17.9917,-84.0414 46.9748,-113.026 28.9843,-28.9831 68.993,-46.9748 113.026,-46.9748zm704.001 64.0016l-704.001 0c-26.3669,0 -50.3611,10.8095 -67.7752,28.2236 -17.4142,17.4142 -28.2236,41.4083 -28.2236,67.7752l0 63.9969 16.0606 0c17.6728,0 32.0008,14.328 32.0008,32.0008l0 1024c0,17.6728 -14.328,32.0008 -32.0008,32.0008l-16.0606 0 0 64.0016c0,26.3669 10.8095,50.3611 28.2236,67.7752 17.4142,17.4142 41.4083,28.2236 67.7752,28.2236l704.001 0c26.3669,0 50.3611,-10.8095 67.7752,-28.2236 17.4142,-17.4142 28.2236,-41.4083 28.2236,-67.7752l0 -64.0016 -16.0618 0c-17.6728,0 -32.0008,-14.328 -32.0008,-32.0008l0 -1024c0,-17.6728 14.328,-32.0008 32.0008,-32.0008l16.0618 0 0 -63.9969c0,-26.3669 -10.8095,-50.3611 -28.2236,-67.7752 -17.4142,-17.4142 -41.4083,-28.2236 -67.7752,-28.2236z"/>
  <path class="fil0" d="M550.966 479.998c-17.6728,0 -32.0008,14.328 -32.0008,32.0008 0,17.6728 14.328,32.0008 32.0008,32.0008l473.801 0 472.269 0c17.6728,0 32.0008,-14.328 32.0008,-32.0008 0,-17.6728 -14.328,-32.0008 -32.0008,-32.0008l-472.269 0 -473.801 0z"/>
  <path class="fil0" d="M550.966 1504c-17.6728,0 -32.0008,14.328 -32.0008,32.0008 0,17.6728 14.328,32.0008 32.0008,32.0008l473.801 0 472.269 0c17.6728,0 32.0008,-14.328 32.0008,-32.0008 0,-17.6728 -14.328,-32.0008 -32.0008,-32.0008l-472.269 0 -473.801 0z"/>
  <path class="fil0" d="M895.999 367.998c-17.6728,0 -32.0008,14.328 -32.0008,32.0008 0,17.6728 14.328,32.0008 32.0008,32.0008l256.002 0c17.6728,0 32.0008,-14.328 32.0008,-32.0008 0,-17.6728 -14.328,-32.0008 -32.0008,-32.0008l-256.002 0z"/>
  <path class="fil0" d="M971.672 1616c-17.6728,0 -32.0008,14.328 -32.0008,32.0008 0,17.6728 14.328,32.0008 32.0008,32.0008l104.655 0c17.6728,0 32.0008,-14.328 32.0008,-32.0008 0,-17.6728 -14.328,-32.0008 -32.0008,-32.0008l-104.655 0z"/>
  <path class="fil0" d="M872.212 962.674c-0.895276,-15.287 2.79331,-55.265 55.0701,-102.155 -3.26339,-26.2418 -13.2768,-81.0615 -42.5681,-124.687 -25.1445,0.478347 -81.228,11.9469 -84.9863,104.186l-31.8756 -1.24961 31.9736 1.30276c-0.0944883,2.32205 -0.437008,4.57441 -0.99567,6.73701 -2.97166,14.6929 -2.1189,31.5827 1.90866,49.9229 14.5736,66.3721 68.6788,146.378 136.415,214.115 67.7386,67.7386 147.742,121.843 214.115,136.415 18.8339,4.13622 36.1406,4.92284 51.1063,1.65945l-0.00590552 -0.0283465c2.62087,-0.575197 5.23465,-0.809056 7.80119,-0.735827 90.2115,-4.55906 101.517,-59.9327 101.998,-84.8705 -43.624,-29.2914 -98.4438,-39.3048 -124.687,-42.5681 -59.9752,66.8658 -108.65,54.241 -108.8,54.2056l7.37481 -31.1256 -7.42796 31.1268c-6.19725,-1.47874 -11.537,-4.6689 -15.6437,-8.94804l-181.408 -181.408 -0.00236221 0.00236221c-6.0626,-6.0626 -9.18308,-13.9524 -9.36261,-21.8977zm108.285 -63.5091c-32.6197,25.8933 -41.8807,41.6504 -44.3918,49.4315l163.299 163.299c7.663,-2.47559 23.0587,-11.498 48.2469,-42.9118 6.15119,-8.75198 16.5461,-14.224 28.0122,-13.5744l-0.00472441 0.0755906c2.2748,0.121654 109.159,6.04252 184.511,63.8682 7.50945,4.77284 13.0004,12.6331 14.4685,22.115l-31.6229 4.89685 31.5 -4.87559c0.0720473,0.464174 26.7201,160.76 -160.621,170.349 -23.6669,4.82481 -49.3477,3.80197 -76.1256,-2.07756 -78.7595,-17.2925 -170.34,-78.1382 -245.866,-153.664 -75.5245,-75.5256 -136.37,-167.107 -153.664,-245.866 -5.87953,-26.778 -6.90237,-52.4587 -2.07756,-76.1256 8.74371,-170.811 142.745,-163.736 166.683,-161.097 9.02363,0.346063 17.8453,4.48465 23.8866,12.1205l-25.0961 19.8555 25.0004 -19.7504c54.8835,69.3709 64.428,167.362 65.7083,184.532 1.48701,10.8354 -2.62087,22.154 -11.8087,29.4461l-0.0389764 -0.0484252z"/>
 </g>
 <rect class="fil1" width="2048" height="2048"/>
</svg>
