<?xml version="1.0" encoding="UTF-8"?>
<svg id="Ebene_2" data-name="Ebene 2" xmlns="http://www.w3.org/2000/svg" viewBox="0 0 23 23">
  <defs>
    <style>
      .cls-1 {
        fill: #fff;
      }
    </style>
  </defs>
  <g id="Ebene_1-2" data-name="Ebene 1">
    <g id="clock_1" data-name="clock 1">
      <path class="cls-1" d="m11.5,0C5.15,0,0,5.15,0,11.5s5.15,11.5,11.5,11.5,11.5-5.15,11.5-11.5C22.99,5.15,17.85,0,11.5,0Zm0,22c-5.8,0-10.5-4.7-10.5-10.5S5.7,1,11.5,1s10.5,4.7,10.5,10.5c0,5.8-4.7,10.49-10.5,10.5Z"/>
      <path class="cls-1" d="m12,11.6v-7.1c0-.28-.22-.5-.5-.5s-.5.22-.5.5v7.32c0,.14.06.27.16.36l5,4.68c.09.09.21.14.34.14.28,0,.5-.23.49-.51,0-.13-.06-.26-.15-.35l-4.84-4.54Z"/>
    </g>
  </g>
</svg>