<?xml version="1.0" encoding="UTF-8"?>
<svg id="Ebene_2" data-name="Ebene 2" xmlns="http://www.w3.org/2000/svg" viewBox="0 0 1017.63 335.14">
  <defs>
    <style>
      .cls-1 {
        fill: #2c6e49;
      }

      .cls-2 {
        stroke-width: 3px;
      }

      .cls-2, .cls-3 {
        fill: none;
        stroke-miterlimit: 10;
      }

      .cls-2, .cls-4, .cls-5 {
        stroke: #000;
      }

      .cls-3 {
        stroke: #6c4429;
        stroke-width: 5px;
      }

      .cls-6 {
        letter-spacing: -.1em;
      }

      .cls-7 {
        letter-spacing: -.07em;
      }

      .cls-5 {
        font-family: COCOMAT-Light, COCOMAT;
        font-size: 64.64px;
        font-weight: 300;
      }
    </style>
  </defs>
  <g id="LOGO_1" data-name="LOGO 1">
    <g id="kopf">
      <path d="m131.35,169.64c1.2,3.61-.46,7.76-4.35,8.67-1.61.37-3.36.02-4.58-1.12s-1.9-2.82-1.61-4.34c.15-.8-.22-1.62-1.05-1.85-.73-.2-1.7.25-1.85,1.05-.75,4.03,1.86,8.25,5.92,9.18s8.56-1.44,10.19-5.41c.9-2.2.97-4.72.22-6.98-.25-.77-1.04-1.27-1.85-1.05-.75.21-1.3,1.07-1.05,1.85h0Z"/>
      <path d="m133.59,168.63c-1.35,4.06.03,8.82,3.68,11.19,3.45,2.24,8.33,1.81,10.96-1.48,1.49-1.86,2.13-4.15,1.69-6.5-.15-.8-1.11-1.25-1.85-1.05-.84.23-1.2,1.05-1.05,1.85.27,1.48-.38,3.15-1.55,4.28-1.23,1.19-3,1.57-4.65,1.19-3.89-.91-5.55-5.06-4.35-8.67.25-.77-.3-1.64-1.05-1.85-.82-.22-1.59.28-1.85,1.05h0Z"/>
      <path d="m141.7,154.26c-2.71,4.98-5.86,9.72-9.46,14.1-.51.63-.61,1.51,0,2.12.53.53,1.61.63,2.12,0,3.76-4.59,7.1-9.5,9.93-14.71.92-1.7-1.67-3.21-2.59-1.51h0Z"/>
      <path d="m123.49,155.05c.76,5.98,4.07,11.36,9.16,14.63,1.63,1.05,3.13-1.55,1.51-2.59-4.11-2.64-7.05-7.17-7.67-12.04-.1-.8-.62-1.5-1.5-1.5-.73,0-1.6.69-1.5,1.5h0Z"/>
      <path d="m126.29,156.01c4.1-2.85,9.64-3.06,13.9-.43,1.65,1.02,3.16-1.58,1.51-2.59-5.11-3.15-12-3-16.93.43-.66.46-.97,1.31-.54,2.05.38.66,1.38,1,2.05.54h0Z"/>
      <ellipse cx="171.43" cy="114" rx="9.11" ry="14.16"/>
      <ellipse cx="94.53" cy="114" rx="9.11" ry="14.16"/>
      <path class="cls-3" d="m132.47,6.24c-8.51.08-51.41,1.33-82.97,35.41-17.5,18.9-23.83,39.61-26.31,50.59"/>
      <path class="cls-3" d="m169.91,12.31c8.75,2.76,34.37,12.1,53.62,38.45,20.7,28.33,20.59,57.94,20.24,66.78"/>
      <path id="kopf-2" data-name="kopf" class="cls-3" d="m243.81,112.28c0-9.31-1.25-18.33-3.61-26.93,13.82-6.73,23.34-20.91,23.34-37.31,0-22.91-18.57-41.48-41.48-41.48-12.78,0-24.21,5.78-31.82,14.87h-.01c-16.83-9.76-36.58-15.38-57.71-15.38-19.93,0-38.65,5-54.83,13.77C70.17,9.33,57.87,2.5,43.98,2.5,21.08,2.5,2.5,21.08,2.5,43.98c0,16.46,9.59,30.69,23.5,37.4-3.12,9.78-4.79,20.15-4.79,30.9,0,2.27.07,4.52.23,6.75-7.61,12.21-11.87,25.88-11.87,40.3,0,51.96,55.26,94.1,123.44,94.1s123.44-42.13,123.44-94.1c0-14.99-4.6-29.17-12.78-41.75.08-1.75.13-3.52.13-5.3Z"/>
    </g>
    <g id="schal">
      <g>
        <path class="cls-1" d="m243.9,268.76c-1.34,10.84-4.36,22.3-12.67,29.39-9.34,7.96-22.76,8.37-35.04,8.36-22.26-.03-44.93-.24-67.2-2.37l2.4.69c.15,4.67.27,9.35.35,14.02.07,3.75.01,7.83-2.29,10.8-3.43,4.43-10.05,4.36-15.58,3.56-10.28-1.49-20.41-4.08-30.14-7.71-2.51-.93-5-1.94-7.61-2.5-3-.64-6.1-.68-9.17-.91-5.22-.4-10.41-1.39-15.42-2.93-2.04-.63-4.14-1.4-5.63-2.92-1.22-1.25-1.93-2.9-2.54-4.54-3.81-10.17-4.84-21.37-2.94-32.06-3.83-2.12-7.56-4.49-10.69-7.54-8.15-7.92-11.57-19.84-10.99-31.18.58-11.34,4.77-22.23,10.01-32.31h.6s210.3,4.82,210.3,4.82c-1.09-.52-.47-2.85-.13-1.68,5.24,18.46,6.74,37.97,4.38,57.02Z"/>
        <path d="m242.4,268.76c-.96,7.67-2.71,15.57-6.91,22.18s-11.08,10.7-18.77,12.47-16.45,1.62-24.67,1.6c-9.9-.03-19.8-.11-29.7-.4-11.14-.32-22.27-.91-33.36-1.96-1.72-.16-1.98,2.49-.4,2.95l2.4.69-1.1-1.45c.16,5.06.35,10.13.37,15.2.02,3.9-.38,8.34-4.08,10.54-3.2,1.91-7.33,1.73-10.9,1.32-4.86-.56-9.7-1.57-14.45-2.72s-9.73-2.62-14.48-4.31c-2.37-.84-4.7-1.81-7.1-2.57s-4.91-1.17-7.44-1.38c-5.16-.42-10.21-.76-15.27-1.95-2.31-.54-4.71-1.11-6.9-2.06s-3.45-2.38-4.37-4.47c-4.35-9.96-5.23-21.78-3.39-32.41.11-.65-.07-1.35-.69-1.69-4.57-2.55-8.96-5.43-12.39-9.44-3.04-3.55-5.23-7.81-6.62-12.26-3.08-9.82-2.26-20.25.67-30.01,1.8-5.99,4.34-11.72,7.21-17.27l-1.3.74c1.98.03,3.95.09,5.93.13,5.03.12,10.07.23,15.1.35,7.5.17,15.01.34,22.51.51,9.23.21,18.46.42,27.69.63l30.27.69,30.59.7c9.56.22,19.11.44,28.67.66l24.14.55c5.79.13,11.59.26,17.38.4,2.75.06,5.51.2,8.27.19.12,0,.23,0,.35,0,1.54.04,1.98-2.03.76-2.8.33.21,0,.16.13.12,0-.11,0-.14,0-.09-.11.34-.38.58-.82.71l-1.16-.15c-.49-.74-.61-.78-.36-.12.08.3.17.61.25.91.17.61.33,1.22.49,1.82.32,1.22.61,2.44.9,3.67.53,2.3,1.01,4.61,1.42,6.93.84,4.67,1.44,9.38,1.8,14.1.74,9.57.5,19.2-.66,28.73-.23,1.91,2.77,1.9,3,0,2.28-18.72.91-37.86-4.05-56.06-.24-.88-.38-2.05-1.24-2.57-.79-.47-1.75-.14-2.22.61-.82,1.31-.23,3.18,1.01,3.97l.76-2.8c-1.89-.04-3.79-.09-5.68-.13-5.13-.12-10.25-.23-15.38-.35-7.57-.17-15.14-.35-22.71-.52-9.27-.21-18.54-.42-27.81-.64-10.1-.23-20.21-.46-30.31-.69s-20.38-.47-30.56-.7c-9.52-.22-19.04-.44-28.56-.65-7.99-.18-15.97-.37-23.96-.55-5.71-.13-11.41-.26-17.12-.39-2.64-.06-5.29-.12-7.93-.18-.29,0-.57-.01-.86-.02-.51,0-1.06.29-1.3.74-5.33,10.29-9.62,21.38-10.21,33.06-.51,9.97,1.97,20.42,8.09,28.45,3.8,4.99,8.9,8.54,14.34,11.57l-.69-1.69c-1.8,10.38-1.08,21.15,2.33,31.13.77,2.27,1.58,4.62,3.14,6.48s3.73,2.79,5.92,3.52c5.05,1.67,10.35,2.67,15.64,3.15,2.84.26,5.71.26,8.53.72s5.33,1.42,7.91,2.39c5.01,1.88,10.11,3.53,15.29,4.87s10.67,2.46,16.08,3.22c3.94.55,8.23.83,12.01-.66,4.85-1.91,6.99-6.26,7.35-11.25.2-2.75.04-5.54-.03-8.29-.07-3.22-.16-6.45-.27-9.67-.02-.67-.45-1.26-1.1-1.45l-2.4-.69-.4,2.95c20.47,1.94,41.04,2.29,61.59,2.36,16.12.05,35.33.81,46.1-13.52,5.54-7.37,7.6-16.74,8.72-25.71.24-1.91-2.76-1.89-3,0Z"/>
      </g>
      <path class="cls-2" d="m37.88,278.86c13.68,6.4,30.64,13.05,50.59,18.21,17.26,4.47,33.02,6.86,46.54,8.09"/>
    </g>
    <g>
      <path class="cls-4" d="m390.5,92.11c.56.42.83.9.83,1.46,0,.31-.17.7-.52,1.15-.07.07-.19.23-.37.49-.17.26-.39.54-.65.83-.26.3-.53.57-.81.81-.28.24-.54.36-.78.36h-.21c-.1,0-.24-.03-.42-.08-.17-.05-.38-.16-.63-.34-2.99-2.29-6.19-4.09-9.61-5.39-3.42-1.3-7.08-1.95-10.97-1.95-3.2,0-6.26.41-9.2,1.22-2.94.82-5.68,1.97-8.23,3.47-2.55,1.49-4.86,3.28-6.93,5.37-2.07,2.08-3.84,4.39-5.32,6.9-1.48,2.52-2.61,5.21-3.41,8.08-.8,2.87-1.2,5.83-1.2,8.88s.41,6.12,1.22,8.99c.82,2.87,1.97,5.55,3.46,8.05,1.49,2.5,3.27,4.78,5.34,6.83,2.07,2.05,4.35,3.8,6.85,5.26,2.5,1.46,5.17,2.59,8,3.39,2.83.8,5.78,1.2,8.83,1.2,7.16,0,14-2.34,20.53-7.03.43-.24.87-.49,1.3-.73.35-.17.62-.26.83-.26.24,0,.53.14.86.42.33.28.65.62.96,1.02.31.4.57.83.78,1.28.21.45.31.85.31,1.2,0,.31-.09.58-.26.81-.17.23-.4.46-.68.7-3.44,2.68-7.2,4.75-11.28,6.23-4.08,1.48-8.5,2.21-13.26,2.21-5.49,0-10.64-1.03-15.45-3.1-4.81-2.07-9.01-4.9-12.58-8.49-3.58-3.6-6.4-7.8-8.47-12.61-2.07-4.81-3.1-9.96-3.1-15.45,0-3.65.47-7.16,1.41-10.53.94-3.37,2.27-6.52,3.99-9.46,1.72-2.94,3.79-5.62,6.2-8.05,2.41-2.43,5.09-4.51,8.02-6.23,2.94-1.72,6.1-3.06,9.48-4.01,3.39-.95,6.9-1.43,10.55-1.43,4.65,0,9.03.76,13.13,2.29,4.1,1.53,7.9,3.61,11.41,6.25Z"/>
      <path class="cls-4" d="m407.8,123.27c0-3.65.47-7.16,1.41-10.55.94-3.39,2.27-6.55,3.99-9.48,1.72-2.94,3.79-5.61,6.2-8.02,2.41-2.41,5.09-4.48,8.02-6.2,2.94-1.72,6.1-3.06,9.48-4.01,3.39-.95,6.9-1.43,10.55-1.43,3.65,0,7.16.48,10.55,1.43,3.39.96,6.55,2.29,9.48,4.01,2.93,1.72,5.61,3.79,8.02,6.2,2.41,2.42,4.48,5.09,6.2,8.02,1.72,2.94,3.06,6.1,4.01,9.48.96,3.39,1.43,6.9,1.43,10.55,0,3.65-.48,7.16-1.43,10.53-.96,3.37-2.29,6.52-4.01,9.46-1.72,2.94-3.79,5.61-6.2,8.02-2.42,2.41-5.09,4.48-8.02,6.2-2.94,1.72-6.1,3.05-9.48,3.99-3.39.94-6.9,1.41-10.55,1.41-3.65,0-7.16-.47-10.55-1.41-3.39-.94-6.55-2.27-9.48-3.99-2.94-1.72-5.61-3.79-8.02-6.2-2.42-2.41-4.48-5.09-6.2-8.02-1.72-2.94-3.05-6.09-3.99-9.46-.94-3.37-1.41-6.88-1.41-10.53Zm5.78,0c0,4.66.89,9.04,2.66,13.16,1.77,4.12,4.19,7.7,7.27,10.76,3.07,3.06,6.67,5.47,10.79,7.24,4.12,1.77,8.5,2.66,13.16,2.66,3.09,0,6.09-.4,8.99-1.2,2.9-.8,5.6-1.94,8.1-3.41,2.5-1.48,4.79-3.25,6.85-5.31,2.07-2.07,3.84-4.35,5.32-6.85,1.48-2.5,2.62-5.18,3.44-8.05.82-2.87,1.22-5.86,1.22-8.99,0-4.65-.89-9.04-2.68-13.16-1.79-4.12-4.22-7.71-7.29-10.79-3.07-3.07-6.67-5.51-10.79-7.29-4.12-1.79-8.5-2.68-13.16-2.68-3.13,0-6.12.41-8.99,1.22-2.87.82-5.56,1.96-8.08,3.44-2.52,1.48-4.81,3.25-6.88,5.31-2.07,2.07-3.83,4.35-5.29,6.85-1.46,2.5-2.6,5.2-3.41,8.1-.82,2.9-1.22,5.9-1.22,8.99Z"/>
      <path class="cls-4" d="m508.73,161.88c-.38,0-.78-.09-1.2-.26-.42-.17-.62-.56-.62-1.15,0-.24.07-.49.21-.73.14-.24.29-.47.47-.68,7.85-11.57,15.68-23.05,23.47-34.44,7.8-11.39,15.64-22.87,23.53-34.44h-41.01c-1.35,0-2.03-.66-2.03-1.98,0-.61,0-1.22,0-1.82,0-1.25.68-1.88,2.03-1.88h48.3c.35,0,.72.09,1.12.26.4.17.62.57.65,1.2,0,.24-.07.48-.21.7-.14.23-.3.44-.47.65-15.6,22.96-31.19,45.92-46.79,68.88h46.64c1.28,0,1.93.64,1.93,1.93v1.82c0,.59-.17,1.06-.52,1.41-.35.35-.82.52-1.41.52h-54.09Z"/>
      <path class="cls-4" d="m583.86,87c-.31-.45-.47-.87-.47-1.25,0-.38.17-.7.52-.96.35-.26.73-.39,1.15-.39.42,0,.84-.02,1.28-.05.43-.03.87-.03,1.3.03.43.05.85.19,1.25.42.4.23.76.6,1.07,1.12.69,1.15,1.39,2.29,2.08,3.44,3.34,5.7,6.66,11.35,9.98,16.96,3.32,5.61,6.66,11.25,10.03,16.91,3.58-6.04,7.13-12.03,10.66-17.95,3.53-5.92,7.08-11.89,10.66-17.9.24-.42.46-.81.65-1.17.19-.36.43-.68.7-.94.28-.26.63-.47,1.07-.63.43-.16,1.05-.23,1.85-.23.35,0,.71,0,1.09,0,.38,0,.72.04,1.02.1.29.07.54.18.73.34.19.16.29.41.29.76,0,.14-.03.31-.08.52-.05.21-.16.43-.34.68-4.27,7.02-8.49,14.07-12.66,21.16-4.17,7.09-8.41,14.14-12.71,21.16v30.85c0,1.28-.62,1.93-1.88,1.93h-1.98c-1.25,0-1.88-.64-1.88-1.93v-30.64c-8.46-14.1-16.92-28.21-25.38-42.31Z"/>
      <path class="cls-4" d="m764.1,103.42c0,3.54-.83,6.58-2.5,9.12-1.67,2.54-3.86,4.71-6.57,6.51,1.91.73,3.69,1.74,5.34,3.02,1.65,1.29,3.09,2.81,4.33,4.59,1.23,1.77,2.21,3.79,2.92,6.04.71,2.26,1.07,4.74,1.07,7.45,0,3.13-.55,6.01-1.64,8.65-1.09,2.64-2.6,4.92-4.51,6.85-1.91,1.93-4.13,3.44-6.67,4.53-2.54,1.09-5.23,1.66-8.08,1.69h-35.59c-.49-.03-.87-.19-1.15-.47-.28-.28-.44-.63-.47-1.04v-73.94c0-.8.19-1.32.57-1.56.38-.24.76-.36,1.15-.36h31.47c2.81,0,5.46.45,7.95,1.35,2.48.9,4.64,2.19,6.46,3.86,1.82,1.67,3.26,3.67,4.33,5.99,1.06,2.33,1.59,4.9,1.59,7.71Zm-5.68.1c0-2.26-.45-4.23-1.35-5.91-.9-1.68-2.13-3.08-3.67-4.19-1.55-1.11-3.36-1.94-5.45-2.48-2.08-.54-4.32-.81-6.72-.81h-24.91c0,9.03,0,18.06,0,27.1h27.41c2.05,0,3.97-.32,5.76-.96,1.79-.64,3.34-1.56,4.66-2.76,1.32-1.2,2.36-2.64,3.13-4.32.76-1.68,1.15-3.57,1.15-5.65Zm-42.1,19.33c0,11.12,0,22.23,0,33.35h31.52s-.05.02-.05.05c1.98-.07,3.89-.47,5.73-1.2,1.84-.73,3.46-1.77,4.85-3.13,1.39-1.36,2.5-3.01,3.33-4.98.83-1.96,1.25-4.19,1.25-6.7,0-2.5-.43-4.82-1.3-6.96-.87-2.14-2.01-3.98-3.44-5.52-1.42-1.55-3.07-2.75-4.92-3.62-1.86-.87-3.8-1.3-5.81-1.3h-31.16Z"/>
      <path class="cls-4" d="m846.58,84.5c1.32,0,1.98.64,1.98,1.93v1.82c0,.59-.17,1.06-.5,1.41-.33.35-.83.52-1.48.52h-46.43v38.87h37.52c.59,0,1.07.16,1.43.47.36.31.55.82.55,1.51v1.88c0,.59-.17,1.06-.52,1.41-.35.35-.83.52-1.46.52h-37.52v21.36h47.26c1.32,0,1.98.64,1.98,1.93v1.88c0,1.25-.64,1.88-1.93,1.88h-51.43c-.59,0-1.02-.16-1.28-.5-.26-.33-.39-.77-.39-1.33v-73.68c0-.8.2-1.31.6-1.54.4-.23.84-.34,1.33-.34h50.28Z"/>
      <path class="cls-4" d="m930,160.47c-.7-1.67-1.39-3.35-2.08-5.05-.7-1.7-1.39-3.4-2.08-5.11h-46.32c-1.37,3.32-2.74,6.64-4.12,9.95-.49,1.08-1.16,1.62-2.03,1.62-1.18,0-2.12-.16-2.81-.5-.69-.33-1.04-.72-1.04-1.17,0-.31.07-.61.21-.89,10.14-24.25,20.29-48.49,30.43-72.74.14-.31.31-.68.52-1.09.21-.42.42-.81.65-1.17.23-.36.46-.67.7-.91.24-.24.47-.36.68-.36.69,0,1.22.38,1.56,1.15l31.37,75.24c.07.1.12.26.16.47.03.21.05.38.05.52,0,.38-.4.72-1.2,1.02-.8.3-1.7.44-2.71.44-.9,0-1.55-.47-1.93-1.41Zm-48.15-15.89h41.58c-6.32-15.25-12.64-30.5-18.97-45.75-.28-.69-.57-1.4-.86-2.11-.3-.71-.6-1.42-.91-2.11-.07,0-.1.04-.1.1-6.91,16.62-13.83,33.24-20.74,49.87Z"/>
      <path class="cls-4" d="m1017.13,113.73c0,2.43-.29,4.83-.89,7.19-.59,2.36-1.46,4.6-2.61,6.72-1.15,2.12-2.55,4.09-4.22,5.91-1.67,1.82-3.58,3.4-5.73,4.72,3.34,7.05,6.67,14.1,10,21.15.03.07.07.21.1.42.03.21.05.38.05.52,0,.38-.13.73-.39,1.04-.26.31-.63.47-1.12.47h-3.08c-.66,0-1.16-.36-1.51-1.09-3.13-6.62-6.25-13.24-9.38-19.85-3.23,1.29-6.91,1.93-11.05,1.93h-21.26c0,5.68,0,11.36,0,17.04,0,1.32-.68,1.98-2.03,1.98h-1.93c-1.32,0-1.98-.66-1.98-1.98v-73.26c0-.59.18-1.09.55-1.48.37-.4.79-.62,1.28-.65h25.38c4.59,0,8.72.82,12.4,2.45,3.68,1.63,6.82,3.81,9.41,6.54,2.59,2.73,4.57,5.84,5.94,9.35,1.37,3.51,2.06,7.14,2.06,10.89Zm-29.8,23.19c3.79,0,7.16-.65,10.11-1.95,2.95-1.3,5.45-3.04,7.48-5.21,2.03-2.17,3.59-4.65,4.66-7.43,1.08-2.78,1.62-5.64,1.62-8.6,0-2.95-.54-5.83-1.62-8.62-1.08-2.8-2.63-5.29-4.66-7.48-2.03-2.19-4.53-3.94-7.48-5.26-2.95-1.32-6.32-1.98-10.11-1.98h-21.26c0,15.51,0,31.02,0,46.53h21.26Z"/>
    </g>
    <text class="cls-5" transform="translate(353.31 255.38)"><tspan x="0" y="0">CAFÉ &amp; </tspan><tspan class="cls-7" x="267.17" y="0">P</tspan><tspan class="cls-6" x="302.17" y="0">Â</tspan><tspan x="341.09" y="0">TISSERIE</tspan></text>
  </g>
</svg>