<?xml version="1.0" encoding="UTF-8"?>
<svg id="Ebene_2" data-name="Ebene 2" xmlns="http://www.w3.org/2000/svg" viewBox="0 0 1017.63 335.14">
  <defs>
    <style>
      .cls-1 {
        fill: #2c6e49;
      }

      .cls-2 {
        stroke-width: 3px;
      }

      .cls-2, .cls-3 {
        fill: none;
        stroke-miterlimit: 10;
      }

      .cls-2, .cls-4 {
        stroke: #000;
      }

      .cls-3 {
        stroke: #6c4429;
        stroke-width: 5px;
      }
    </style>
  </defs>
  <g id="LOGO_1" data-name="LOGO 1">
    <g id="kopf">
      <g id="Nase">
        <path d="m131.35,169.64c1.2,3.61-.46,7.76-4.35,8.67-1.61.37-3.36.02-4.58-1.12s-1.9-2.82-1.61-4.34c.15-.8-.22-1.62-1.05-1.85-.73-.2-1.7.25-1.85,1.05-.75,4.03,1.86,8.25,5.92,9.18s8.56-1.44,10.19-5.41c.9-2.2.97-4.72.22-6.98-.25-.77-1.04-1.27-1.85-1.05-.75.21-1.3,1.07-1.05,1.85h0Z"/>
        <path d="m133.59,168.63c-1.35,4.06.03,8.82,3.68,11.19,3.45,2.24,8.33,1.81,10.96-1.48,1.49-1.86,2.13-4.15,1.69-6.5-.15-.8-1.11-1.25-1.85-1.05-.84.23-1.2,1.05-1.05,1.85.27,1.48-.38,3.15-1.55,4.28-1.23,1.19-3,1.57-4.65,1.19-3.89-.91-5.55-5.06-4.35-8.67.25-.77-.3-1.64-1.05-1.85-.82-.22-1.59.28-1.85,1.05h0Z"/>
        <path d="m141.7,154.26c-2.71,4.98-5.86,9.72-9.46,14.1-.51.63-.61,1.51,0,2.12.53.53,1.61.63,2.12,0,3.76-4.59,7.1-9.5,9.93-14.71.92-1.7-1.67-3.21-2.59-1.51h0Z"/>
        <path d="m123.49,155.05c.76,5.98,4.07,11.36,9.16,14.63,1.63,1.05,3.13-1.55,1.51-2.59-4.11-2.64-7.05-7.17-7.67-12.04-.1-.8-.62-1.5-1.5-1.5-.73,0-1.6.69-1.5,1.5h0Z"/>
        <path d="m126.29,156.01c4.1-2.85,9.64-3.06,13.9-.43,1.65,1.02,3.16-1.58,1.51-2.59-5.11-3.15-12-3-16.93.43-.66.46-.97,1.31-.54,2.05.38.66,1.38,1,2.05.54h0Z"/>
      </g>
      <g id="Augen">
        <ellipse cx="171.43" cy="114" rx="9.11" ry="14.16"/>
        <ellipse cx="94.53" cy="114" rx="9.11" ry="14.16"/>
      </g>
      <path class="cls-3" d="m132.47,6.24c-8.51.08-51.41,1.33-82.97,35.41-17.5,18.9-23.83,39.61-26.31,50.59"/>
      <path class="cls-3" d="m169.91,12.31c8.75,2.76,34.37,12.1,53.62,38.45,20.7,28.33,20.59,57.94,20.24,66.78"/>
      <path id="kopf-2" data-name="kopf" class="cls-3" d="m243.81,112.28c0-9.31-1.25-18.33-3.61-26.93,13.82-6.73,23.34-20.91,23.34-37.31,0-22.91-18.57-41.48-41.48-41.48-12.78,0-24.21,5.78-31.82,14.87h-.01c-16.83-9.76-36.58-15.38-57.71-15.38-19.93,0-38.65,5-54.83,13.77C70.17,9.33,57.87,2.5,43.98,2.5,21.08,2.5,2.5,21.08,2.5,43.98c0,16.46,9.59,30.69,23.5,37.4-3.12,9.78-4.79,20.15-4.79,30.9,0,2.27.07,4.52.23,6.75-7.61,12.21-11.87,25.88-11.87,40.3,0,51.96,55.26,94.1,123.44,94.1s123.44-42.13,123.44-94.1c0-14.99-4.6-29.17-12.78-41.75.08-1.75.13-3.52.13-5.3Z"/>
    </g>
    <g id="schal">
      <g>
        <path class="cls-1" d="m243.9,268.76c-1.34,10.84-4.36,22.3-12.67,29.39-9.34,7.96-22.76,8.37-35.04,8.36-22.26-.03-44.93-.24-67.2-2.37l2.4.69c.15,4.67.27,9.35.35,14.02.07,3.75.01,7.83-2.29,10.8-3.43,4.43-10.05,4.36-15.58,3.56-10.28-1.49-20.41-4.08-30.14-7.71-2.51-.93-5-1.94-7.61-2.5-3-.64-6.1-.68-9.17-.91-5.22-.4-10.41-1.39-15.42-2.93-2.04-.63-4.14-1.4-5.63-2.92-1.22-1.25-1.93-2.9-2.54-4.54-3.81-10.17-4.84-21.37-2.94-32.06-3.83-2.12-7.56-4.49-10.69-7.54-8.15-7.92-11.57-19.84-10.99-31.18.58-11.34,4.77-22.23,10.01-32.31h.6s210.3,4.82,210.3,4.82c-1.09-.52-.47-2.85-.13-1.68,5.24,18.46,6.74,37.97,4.38,57.02Z"/>
        <path d="m242.4,268.76c-.96,7.67-2.71,15.57-6.91,22.18s-11.08,10.7-18.77,12.47-16.45,1.62-24.67,1.6c-9.9-.03-19.8-.11-29.7-.4-11.14-.32-22.27-.91-33.36-1.96-1.72-.16-1.98,2.49-.4,2.95l2.4.69-1.1-1.45c.16,5.06.35,10.13.37,15.2.02,3.9-.38,8.34-4.08,10.54-3.2,1.91-7.33,1.73-10.9,1.32-4.86-.56-9.7-1.57-14.45-2.72s-9.73-2.62-14.48-4.31c-2.37-.84-4.7-1.81-7.1-2.57s-4.91-1.17-7.44-1.38c-5.16-.42-10.21-.76-15.27-1.95-2.31-.54-4.71-1.11-6.9-2.06s-3.45-2.38-4.37-4.47c-4.35-9.96-5.23-21.78-3.39-32.41.11-.65-.07-1.35-.69-1.69-4.57-2.55-8.96-5.43-12.39-9.44-3.04-3.55-5.23-7.81-6.62-12.26-3.08-9.82-2.26-20.25.67-30.01,1.8-5.99,4.34-11.72,7.21-17.27l-1.3.74c1.98.03,3.95.09,5.93.13,5.03.12,10.07.23,15.1.35,7.5.17,15.01.34,22.51.51,9.23.21,18.46.42,27.69.63l30.27.69,30.59.7c9.56.22,19.11.44,28.67.66l24.14.55c5.79.13,11.59.26,17.38.4,2.75.06,5.51.2,8.27.19.12,0,.23,0,.35,0,1.54.04,1.98-2.03.76-2.8.33.21,0,.16.13.12,0-.11,0-.14,0-.09-.11.34-.38.58-.82.71l-1.16-.15c-.49-.74-.61-.78-.36-.12.08.3.17.61.25.91.17.61.33,1.22.49,1.82.32,1.22.61,2.44.9,3.67.53,2.3,1.01,4.61,1.42,6.93.84,4.67,1.44,9.38,1.8,14.1.74,9.57.5,19.2-.66,28.73-.23,1.91,2.77,1.9,3,0,2.28-18.72.91-37.86-4.05-56.06-.24-.88-.38-2.05-1.24-2.57-.79-.47-1.75-.14-2.22.61-.82,1.31-.23,3.18,1.01,3.97l.76-2.8c-1.89-.04-3.79-.09-5.68-.13-5.13-.12-10.25-.23-15.38-.35-7.57-.17-15.14-.35-22.71-.52-9.27-.21-18.54-.42-27.81-.64-10.1-.23-20.21-.46-30.31-.69s-20.38-.47-30.56-.7c-9.52-.22-19.04-.44-28.56-.65-7.99-.18-15.97-.37-23.96-.55-5.71-.13-11.41-.26-17.12-.39-2.64-.06-5.29-.12-7.93-.18-.29,0-.57-.01-.86-.02-.51,0-1.06.29-1.3.74-5.33,10.29-9.62,21.38-10.21,33.06-.51,9.97,1.97,20.42,8.09,28.45,3.8,4.99,8.9,8.54,14.34,11.57l-.69-1.69c-1.8,10.38-1.08,21.15,2.33,31.13.77,2.27,1.58,4.62,3.14,6.48s3.73,2.79,5.92,3.52c5.05,1.67,10.35,2.67,15.64,3.15,2.84.26,5.71.26,8.53.72s5.33,1.42,7.91,2.39c5.01,1.88,10.11,3.53,15.29,4.87s10.67,2.46,16.08,3.22c3.94.55,8.23.83,12.01-.66,4.85-1.91,6.99-6.26,7.35-11.25.2-2.75.04-5.54-.03-8.29-.07-3.22-.16-6.45-.27-9.67-.02-.67-.45-1.26-1.1-1.45l-2.4-.69-.4,2.95c20.47,1.94,41.04,2.29,61.59,2.36,16.12.05,35.33.81,46.1-13.52,5.54-7.37,7.6-16.74,8.72-25.71.24-1.91-2.76-1.89-3,0Z"/>
      </g>
      <path class="cls-2" d="m37.88,278.86c13.68,6.4,30.64,13.05,50.59,18.21,17.26,4.47,33.02,6.86,46.54,8.09"/>
    </g>
    <g id="cozy_bear" data-name="cozy bear">
      <g>
        <path class="cls-4" d="m390.5,92.11c.56.42.83.9.83,1.46,0,.31-.17.7-.52,1.15-.07.07-.19.23-.37.49-.17.26-.39.54-.65.83-.26.3-.53.57-.81.81-.28.24-.54.36-.78.36h-.21c-.1,0-.24-.03-.42-.08-.17-.05-.38-.16-.63-.34-2.99-2.29-6.19-4.09-9.61-5.39-3.42-1.3-7.08-1.95-10.97-1.95-3.2,0-6.26.41-9.2,1.22-2.94.82-5.68,1.97-8.23,3.47-2.55,1.49-4.86,3.28-6.93,5.37-2.07,2.08-3.84,4.39-5.32,6.9-1.48,2.52-2.61,5.21-3.41,8.08-.8,2.87-1.2,5.83-1.2,8.88s.41,6.12,1.22,8.99c.82,2.87,1.97,5.55,3.46,8.05,1.49,2.5,3.27,4.78,5.34,6.83,2.07,2.05,4.35,3.8,6.85,5.26,2.5,1.46,5.17,2.59,8,3.39,2.83.8,5.78,1.2,8.83,1.2,7.16,0,14-2.34,20.53-7.03.43-.24.87-.49,1.3-.73.35-.17.62-.26.83-.26.24,0,.53.14.86.42.33.28.65.62.96,1.02.31.4.57.83.78,1.28.21.45.31.85.31,1.2,0,.31-.09.58-.26.81-.17.23-.4.46-.68.7-3.44,2.68-7.2,4.75-11.28,6.23-4.08,1.48-8.5,2.21-13.26,2.21-5.49,0-10.64-1.03-15.45-3.1-4.81-2.07-9.01-4.9-12.58-8.49-3.58-3.6-6.4-7.8-8.47-12.61-2.07-4.81-3.1-9.96-3.1-15.45,0-3.65.47-7.16,1.41-10.53.94-3.37,2.27-6.52,3.99-9.46,1.72-2.94,3.79-5.62,6.2-8.05,2.41-2.43,5.09-4.51,8.02-6.23,2.94-1.72,6.1-3.06,9.48-4.01,3.39-.95,6.9-1.43,10.55-1.43,4.65,0,9.03.76,13.13,2.29,4.1,1.53,7.9,3.61,11.41,6.25Z"/>
        <path class="cls-4" d="m407.8,123.27c0-3.65.47-7.16,1.41-10.55.94-3.39,2.27-6.55,3.99-9.48,1.72-2.94,3.79-5.61,6.2-8.02,2.41-2.41,5.09-4.48,8.02-6.2,2.94-1.72,6.1-3.06,9.48-4.01,3.39-.95,6.9-1.43,10.55-1.43,3.65,0,7.16.48,10.55,1.43,3.39.96,6.55,2.29,9.48,4.01,2.93,1.72,5.61,3.79,8.02,6.2,2.41,2.42,4.48,5.09,6.2,8.02,1.72,2.94,3.06,6.1,4.01,9.48.96,3.39,1.43,6.9,1.43,10.55,0,3.65-.48,7.16-1.43,10.53-.96,3.37-2.29,6.52-4.01,9.46-1.72,2.94-3.79,5.61-6.2,8.02-2.42,2.41-5.09,4.48-8.02,6.2-2.94,1.72-6.1,3.05-9.48,3.99-3.39.94-6.9,1.41-10.55,1.41-3.65,0-7.16-.47-10.55-1.41-3.39-.94-6.55-2.27-9.48-3.99-2.94-1.72-5.61-3.79-8.02-6.2-2.42-2.41-4.48-5.09-6.2-8.02-1.72-2.94-3.05-6.09-3.99-9.46-.94-3.37-1.41-6.88-1.41-10.53Zm5.78,0c0,4.66.89,9.04,2.66,13.16,1.77,4.12,4.19,7.7,7.27,10.76,3.07,3.06,6.67,5.47,10.79,7.24,4.12,1.77,8.5,2.66,13.16,2.66,3.09,0,6.09-.4,8.99-1.2,2.9-.8,5.6-1.94,8.1-3.41,2.5-1.48,4.79-3.25,6.85-5.31,2.07-2.07,3.84-4.35,5.32-6.85,1.48-2.5,2.62-5.18,3.44-8.05.82-2.87,1.22-5.86,1.22-8.99,0-4.65-.89-9.04-2.68-13.16-1.79-4.12-4.22-7.71-7.29-10.79-3.07-3.07-6.67-5.51-10.79-7.29-4.12-1.79-8.5-2.68-13.16-2.68-3.13,0-6.12.41-8.99,1.22-2.87.82-5.56,1.96-8.08,3.44-2.52,1.48-4.81,3.25-6.88,5.31-2.07,2.07-3.83,4.35-5.29,6.85-1.46,2.5-2.6,5.2-3.41,8.1-.82,2.9-1.22,5.9-1.22,8.99Z"/>
        <path class="cls-4" d="m508.73,161.88c-.38,0-.78-.09-1.2-.26-.42-.17-.62-.56-.62-1.15,0-.24.07-.49.21-.73.14-.24.29-.47.47-.68,7.85-11.57,15.68-23.05,23.47-34.44,7.8-11.39,15.64-22.87,23.53-34.44h-41.01c-1.35,0-2.03-.66-2.03-1.98,0-.61,0-1.22,0-1.82,0-1.25.68-1.88,2.03-1.88h48.3c.35,0,.72.09,1.12.26.4.17.62.57.65,1.2,0,.24-.07.48-.21.7-.14.23-.3.44-.47.65-15.6,22.96-31.19,45.92-46.79,68.88h46.64c1.28,0,1.93.64,1.93,1.93v1.82c0,.59-.17,1.06-.52,1.41-.35.35-.82.52-1.41.52h-54.09Z"/>
        <path class="cls-4" d="m583.86,87c-.31-.45-.47-.87-.47-1.25,0-.38.17-.7.52-.96.35-.26.73-.39,1.15-.39.42,0,.84-.02,1.28-.05.43-.03.87-.03,1.3.03.43.05.85.19,1.25.42.4.23.76.6,1.07,1.12.69,1.15,1.39,2.29,2.08,3.44,3.34,5.7,6.66,11.35,9.98,16.96,3.32,5.61,6.66,11.25,10.03,16.91,3.58-6.04,7.13-12.03,10.66-17.95,3.53-5.92,7.08-11.89,10.66-17.9.24-.42.46-.81.65-1.17.19-.36.43-.68.7-.94.28-.26.63-.47,1.07-.63.43-.16,1.05-.23,1.85-.23.35,0,.71,0,1.09,0,.38,0,.72.04,1.02.1.29.07.54.18.73.34.19.16.29.41.29.76,0,.14-.03.31-.08.52-.05.21-.16.43-.34.68-4.27,7.02-8.49,14.07-12.66,21.16-4.17,7.09-8.41,14.14-12.71,21.16v30.85c0,1.28-.62,1.93-1.88,1.93h-1.98c-1.25,0-1.88-.64-1.88-1.93v-30.64c-8.46-14.1-16.92-28.21-25.38-42.31Z"/>
        <path class="cls-4" d="m764.1,103.42c0,3.54-.83,6.58-2.5,9.12-1.67,2.54-3.86,4.71-6.57,6.51,1.91.73,3.69,1.74,5.34,3.02,1.65,1.29,3.09,2.81,4.33,4.59,1.23,1.77,2.21,3.79,2.92,6.04.71,2.26,1.07,4.74,1.07,7.45,0,3.13-.55,6.01-1.64,8.65-1.09,2.64-2.6,4.92-4.51,6.85-1.91,1.93-4.13,3.44-6.67,4.53-2.54,1.09-5.23,1.66-8.08,1.69h-35.59c-.49-.03-.87-.19-1.15-.47-.28-.28-.44-.63-.47-1.04v-73.94c0-.8.19-1.32.57-1.56.38-.24.76-.36,1.15-.36h31.47c2.81,0,5.46.45,7.95,1.35,2.48.9,4.64,2.19,6.46,3.86,1.82,1.67,3.26,3.67,4.33,5.99,1.06,2.33,1.59,4.9,1.59,7.71Zm-5.68.1c0-2.26-.45-4.23-1.35-5.91-.9-1.68-2.13-3.08-3.67-4.19-1.55-1.11-3.36-1.94-5.45-2.48-2.08-.54-4.32-.81-6.72-.81h-24.91c0,9.03,0,18.06,0,27.1h27.41c2.05,0,3.97-.32,5.76-.96,1.79-.64,3.34-1.56,4.66-2.76,1.32-1.2,2.36-2.64,3.13-4.32.76-1.68,1.15-3.57,1.15-5.65Zm-42.1,19.33c0,11.12,0,22.23,0,33.35h31.52s-.05.02-.05.05c1.98-.07,3.89-.47,5.73-1.2,1.84-.73,3.46-1.77,4.85-3.13,1.39-1.36,2.5-3.01,3.33-4.98.83-1.96,1.25-4.19,1.25-6.7,0-2.5-.43-4.82-1.3-6.96-.87-2.14-2.01-3.98-3.44-5.52-1.42-1.55-3.07-2.75-4.92-3.62-1.86-.87-3.8-1.3-5.81-1.3h-31.16Z"/>
        <path class="cls-4" d="m846.58,84.5c1.32,0,1.98.64,1.98,1.93v1.82c0,.59-.17,1.06-.5,1.41-.33.35-.83.52-1.48.52h-46.43v38.87h37.52c.59,0,1.07.16,1.43.47.36.31.55.82.55,1.51v1.88c0,.59-.17,1.06-.52,1.41-.35.35-.83.52-1.46.52h-37.52v21.36h47.26c1.32,0,1.98.64,1.98,1.93v1.88c0,1.25-.64,1.88-1.93,1.88h-51.43c-.59,0-1.02-.16-1.28-.5-.26-.33-.39-.77-.39-1.33v-73.68c0-.8.2-1.31.6-1.54.4-.23.84-.34,1.33-.34h50.28Z"/>
        <path class="cls-4" d="m930,160.47c-.7-1.67-1.39-3.35-2.08-5.05-.7-1.7-1.39-3.4-2.08-5.11h-46.32c-1.37,3.32-2.74,6.64-4.12,9.95-.49,1.08-1.16,1.62-2.03,1.62-1.18,0-2.12-.16-2.81-.5-.69-.33-1.04-.72-1.04-1.17,0-.31.07-.61.21-.89,10.14-24.25,20.29-48.49,30.43-72.74.14-.31.31-.68.52-1.09.21-.42.42-.81.65-1.17.23-.36.46-.67.7-.91.24-.24.47-.36.68-.36.69,0,1.22.38,1.56,1.15l31.37,75.24c.07.1.12.26.16.47.03.21.05.38.05.52,0,.38-.4.72-1.2,1.02-.8.3-1.7.44-2.71.44-.9,0-1.55-.47-1.93-1.41Zm-48.15-15.89h41.58c-6.32-15.25-12.64-30.5-18.97-45.75-.28-.69-.57-1.4-.86-2.11-.3-.71-.6-1.42-.91-2.11-.07,0-.1.04-.1.1-6.91,16.62-13.83,33.24-20.74,49.87Z"/>
        <path class="cls-4" d="m1017.13,113.73c0,2.43-.29,4.83-.89,7.19-.59,2.36-1.46,4.6-2.61,6.72-1.15,2.12-2.55,4.09-4.22,5.91-1.67,1.82-3.58,3.4-5.73,4.72,3.34,7.05,6.67,14.1,10,21.15.03.07.07.21.1.42.03.21.05.38.05.52,0,.38-.13.73-.39,1.04-.26.31-.63.47-1.12.47h-3.08c-.66,0-1.16-.36-1.51-1.09-3.13-6.62-6.25-13.24-9.38-19.85-3.23,1.29-6.91,1.93-11.05,1.93h-21.26c0,5.68,0,11.36,0,17.04,0,1.32-.68,1.98-2.03,1.98h-1.93c-1.32,0-1.98-.66-1.98-1.98v-73.26c0-.59.18-1.09.55-1.48.37-.4.79-.62,1.28-.65h25.38c4.59,0,8.72.82,12.4,2.45,3.68,1.63,6.82,3.81,9.41,6.54,2.59,2.73,4.57,5.84,5.94,9.35,1.37,3.51,2.06,7.14,2.06,10.89Zm-29.8,23.19c3.79,0,7.16-.65,10.11-1.95,2.95-1.3,5.45-3.04,7.48-5.21,2.03-2.17,3.59-4.65,4.66-7.43,1.08-2.78,1.62-5.64,1.62-8.6,0-2.95-.54-5.83-1.62-8.62-1.08-2.8-2.63-5.29-4.66-7.48-2.03-2.19-4.53-3.94-7.48-5.26-2.95-1.32-6.32-1.98-10.11-1.98h-21.26c0,15.51,0,31.02,0,46.53h21.26Z"/>
      </g>
    </g>
    <g id="café_patisserie" data-name="café patisserie">
      <path class="cls-4" d="m396.07,212.1c.34.26.52.56.52.91,0,.19-.11.43-.32.71-.04.04-.12.15-.23.31-.11.16-.24.33-.4.52-.16.18-.33.35-.5.5-.17.15-.33.23-.49.23h-.13c-.06,0-.15-.02-.26-.05s-.24-.1-.39-.21c-1.85-1.42-3.84-2.54-5.96-3.35-2.12-.81-4.39-1.21-6.8-1.21-1.98,0-3.88.25-5.7.76-1.82.51-3.52,1.22-5.11,2.15s-3.02,2.04-4.3,3.33c-1.28,1.29-2.38,2.72-3.3,4.28-.92,1.56-1.62,3.23-2.12,5.01-.5,1.78-.74,3.61-.74,5.51s.25,3.8.76,5.57c.51,1.78,1.22,3.44,2.15,4.99.93,1.55,2.03,2.96,3.31,4.23,1.28,1.27,2.7,2.36,4.25,3.26,1.55.91,3.2,1.61,4.96,2.1,1.76.5,3.58.74,5.48.74,4.44,0,8.68-1.46,12.73-4.36l.81-.45c.22-.11.39-.16.52-.16.15,0,.33.09.53.26.2.17.4.38.6.63.19.25.36.51.49.79.13.28.19.53.19.74,0,.19-.05.36-.16.5-.11.14-.25.29-.42.44-2.13,1.66-4.46,2.95-7,3.86-2.53.92-5.27,1.37-8.23,1.37-3.4,0-6.6-.64-9.58-1.92-2.98-1.28-5.59-3.04-7.81-5.27-2.22-2.23-3.97-4.84-5.25-7.82-1.28-2.98-1.92-6.18-1.92-9.58,0-2.26.29-4.44.87-6.53.58-2.09,1.41-4.04,2.47-5.87,1.07-1.82,2.35-3.49,3.85-4.99,1.5-1.51,3.16-2.8,4.98-3.86,1.82-1.07,3.78-1.9,5.88-2.49s4.28-.89,6.54-.89c2.89,0,5.6.47,8.14,1.42,2.54.95,4.9,2.24,7.08,3.88Z"/>
      <path class="cls-4" d="m438.53,254.5c-.43-1.03-.86-2.08-1.29-3.13s-.86-2.11-1.29-3.17h-28.73l-2.55,6.17c-.3.67-.72,1-1.26,1-.73,0-1.31-.1-1.75-.31-.43-.21-.65-.45-.65-.73,0-.19.04-.38.13-.55l18.87-45.12c.09-.19.19-.42.32-.68.13-.26.26-.5.4-.73.14-.23.29-.42.44-.57s.29-.23.42-.23c.43,0,.75.24.97.71l19.46,46.67c.04.06.08.16.1.29.02.13.03.24.03.32,0,.24-.25.45-.74.63-.5.18-1.06.27-1.68.27-.56,0-.96-.29-1.2-.87Zm-29.86-9.86h25.79l-11.76-28.38c-.17-.43-.35-.87-.53-1.31-.18-.44-.37-.88-.57-1.31-.04,0-.06.02-.06.06l-12.86,30.93Z"/>
      <path class="cls-4" d="m449.52,208.55c0-.78.39-1.16,1.16-1.16h30.9c.39,0,.69.09.92.28s.34.49.34.92v1.13c0,.37-.11.66-.34.87s-.53.32-.92.32h-28.5v24.14h23.08c.37,0,.66.1.87.29.22.19.32.51.32.94v1.16c0,.37-.1.66-.31.87-.21.21-.5.32-.89.32h-23.08v15.61c0,.75-.41,1.13-1.23,1.13h-1.16c-.78,0-1.16-.38-1.16-1.13v-45.7Z"/>
      <path class="cls-4" d="m522.11,207.38c.82,0,1.23.4,1.23,1.2v1.13c0,.37-.1.66-.31.87-.21.22-.51.32-.92.32h-28.8v24.11h23.27c.37,0,.66.1.89.29.23.19.34.51.34.94v1.16c0,.37-.11.66-.32.87s-.52.32-.9.32h-23.27v13.25h29.31c.82,0,1.23.4,1.23,1.2v1.16c0,.78-.4,1.16-1.2,1.16h-31.9c-.37,0-.63-.1-.79-.31-.16-.21-.24-.48-.24-.82v-45.7c0-.5.12-.81.37-.95.25-.14.52-.21.82-.21h31.19Zm-14.87-15.03c.32-.78.88-1.16,1.68-1.16h1.36c.78,0,1,.39.68,1.16l-3.23,7.56c-.22.5-.46.82-.74.99-.28.16-.6.24-.97.24h-1.33c-.8,0-1.02-.41-.68-1.23l3.23-7.56Z"/>
      <path class="cls-4" d="m567.45,237.7c.93-.5,1.88-.89,2.86-1.2.98-.3,1.97-.45,2.96-.45.43,0,.88.03,1.34.08.46.05.96.17,1.5.34l10.6,2.88c.34.11.7.18,1.05.21s.69.05,1.02.05c.75,0,1.49-.13,2.2-.39s1.36-.61,1.94-1.07c.58-.45,1.09-.99,1.54-1.62.44-.62.76-1.31.95-2.07.24-.62.62-.94,1.16-.94.21,0,.42.04.61.13l.81.32c.28.11.51.25.68.44.17.18.26.39.26.63,0,.3-.04.57-.13.81-.35,1.1-.84,2.11-1.49,3.02s-1.4,1.71-2.26,2.38c-.86.67-1.82,1.19-2.86,1.57-1.05.38-2.15.57-3.31.57-.15,0-.39-.02-.71-.05s-.66-.07-1-.11c-.34-.04-.66-.09-.95-.13-.29-.04-.48-.08-.57-.13l-3.33-.87c-.19,1.94-.75,3.76-1.67,5.48s-2.08,3.21-3.51,4.49c-1.42,1.28-3.05,2.29-4.88,3.04s-3.75,1.12-5.75,1.12c-2.16,0-4.17-.37-6.06-1.1-1.88-.73-3.53-1.75-4.94-3.05s-2.52-2.86-3.33-4.67c-.81-1.81-1.21-3.79-1.21-5.95,0-1.49.2-2.9.6-4.25s.96-2.59,1.7-3.72,1.62-2.15,2.67-3.05c1.04-.91,2.2-1.67,3.47-2.29-1.53-.97-2.75-2.24-3.67-3.81-.92-1.57-1.37-3.38-1.37-5.43,0-1.68.32-3.23.97-4.64s1.52-2.62,2.63-3.62,2.4-1.78,3.86-2.34c1.46-.56,3.03-.84,4.69-.84s3.22.28,4.69.84c1.46.56,2.75,1.34,3.85,2.34,1.1,1,1.97,2.21,2.6,3.62s.95,2.96.95,4.64c0,.41-.11.75-.32,1.02-.22.27-.55.4-1,.4h-.87c-.54,0-.92-.13-1.15-.39-.23-.26-.34-.6-.34-1.03,0-1.21-.21-2.29-.63-3.26-.42-.97-1-1.8-1.75-2.49-.74-.69-1.63-1.22-2.67-1.58s-2.15-.55-3.36-.55-2.33.18-3.36.55-1.93.89-2.7,1.58c-.76.69-1.37,1.52-1.81,2.49-.44.97-.66,2.06-.66,3.26s.21,2.27.63,3.18,1,1.7,1.73,2.34c.73.65,1.59,1.14,2.58,1.49.99.35,2.07.55,3.23.61h.36c.41,0,.75.11,1.02.32.27.22.4.56.4,1.03v.71c0,.54-.13.92-.39,1.15-.26.23-.6.34-1.03.34-1.66,0-3.21.28-4.65.84-1.44.56-2.7,1.34-3.78,2.34-1.08,1-1.93,2.2-2.55,3.59-.63,1.39-.94,2.9-.94,4.54s.31,3.17.94,4.53c.62,1.36,1.47,2.53,2.55,3.52,1.08.99,2.34,1.76,3.78,2.29,1.44.54,2.99.81,4.65.81,1.57,0,3.08-.3,4.52-.91,1.44-.6,2.72-1.43,3.83-2.47s2.01-2.26,2.7-3.65c.69-1.39,1.07-2.88,1.13-4.48l-4.07-1.07c-.43-.06-.85-.1-1.26-.1-.65,0-1.3.07-1.96.21-.66.14-1.34.39-2.05.76-.22.11-.38.2-.5.27-.12.08-.32.11-.6.11-.52,0-.89-.26-1.13-.78l-.39-.81c-.13-.28-.19-.54-.19-.78,0-.52.3-.91.9-1.16Z"/>
      <path class="cls-4" d="m638.29,207.38c2.87,0,5.47.53,7.8,1.6,2.34,1.07,4.34,2.48,6.01,4.25,1.67,1.77,2.96,3.79,3.86,6.06.91,2.27,1.36,4.62,1.36,7.03s-.45,4.69-1.34,6.95c-.89,2.26-2.17,4.29-3.81,6.08s-3.65,3.23-6,4.31c-2.35,1.09-4.98,1.63-7.89,1.63h-9.08v8.92c0,.78-.39,1.16-1.16,1.16h-1.2c-.78,0-1.16-.39-1.16-1.16v-45.63c0-.67.29-1.03.87-1.1l.19-.1h11.54Zm-9.08,34.36h9.11c2.37,0,4.51-.44,6.43-1.33,1.92-.88,3.55-2.05,4.9-3.49,1.35-1.44,2.39-3.09,3.12-4.94.73-1.85,1.1-3.74,1.1-5.66s-.37-3.83-1.1-5.69c-.73-1.85-1.78-3.51-3.13-4.96s-3.01-2.62-4.96-3.51c-1.95-.88-4.15-1.33-6.61-1.33h-8.86v30.9Z"/>
      <path class="cls-4" d="m695.01,254.5c-.43-1.03-.86-2.08-1.29-3.13s-.86-2.11-1.29-3.17h-28.73l-2.55,6.17c-.3.67-.72,1-1.26,1-.73,0-1.31-.1-1.75-.31-.43-.21-.65-.45-.65-.73,0-.19.04-.38.13-.55l18.87-45.12c.09-.19.19-.42.32-.68.13-.26.26-.5.4-.73.14-.23.29-.42.44-.57s.29-.23.42-.23c.43,0,.75.24.97.71l19.46,46.67c.04.06.08.16.1.29.02.13.03.24.03.32,0,.24-.25.45-.74.63-.5.18-1.06.27-1.68.27-.56,0-.96-.29-1.2-.87Zm-29.86-9.86h25.79l-11.76-28.38c-.17-.43-.35-.87-.53-1.31-.18-.44-.37-.88-.57-1.31-.04,0-.06.02-.06.06l-12.86,30.93Zm13.12-54.2c.5-.47,1.04-.43,1.65.13l7.01,7.08c.3.24.44.53.42.89s-.16.65-.42.89l-.42.42c-.28.3-.59.44-.92.42s-.62-.14-.86-.36l-5.69-5.62-5.62,5.62c-.24.26-.53.39-.87.39s-.64-.13-.87-.39l-.58-.55c-.28-.3-.4-.6-.37-.91.03-.3.16-.57.37-.81l7.17-7.21Z"/>
      <path class="cls-4" d="m727.88,207.38c.37,0,.67.09.9.28s.36.48.36.89v1.13c0,.37-.11.66-.32.89-.22.23-.53.34-.94.34h-13.64v43.31c0,.78-.4,1.16-1.2,1.16h-1.16c-.78,0-1.16-.39-1.16-1.16v-43.31h-14.09c-.8,0-1.2-.41-1.2-1.23v-1.13c0-.78.4-1.16,1.2-1.16h31.25Z"/>
      <path class="cls-4" d="m735.8,208.55c0-.37.1-.65.31-.86.2-.21.5-.31.89-.31h1.16c.37,0,.66.1.87.31.21.21.32.49.32.86v45.67c0,.78-.4,1.16-1.2,1.16h-1.16c-.8,0-1.2-.39-1.2-1.16v-45.67Z"/>
      <path class="cls-4" d="m748.17,246.26c.17-.22.4-.45.68-.7.28-.25.58-.37.91-.37.11,0,.31.05.6.16.29.11.5.25.63.42.8,1.1,1.63,2.08,2.49,2.94s1.8,1.58,2.83,2.17,2.14,1.02,3.36,1.33c1.22.3,2.59.45,4.12.45,1.66,0,3.22-.19,4.69-.58,1.46-.39,2.75-.99,3.85-1.79s1.97-1.84,2.62-3.1.97-2.75.97-4.48c0-1.33-.27-2.49-.81-3.47-.54-.98-1.27-1.85-2.2-2.62-.93-.76-2.01-1.44-3.25-2.02-1.24-.58-2.55-1.15-3.93-1.71-2.15-.86-4.16-1.69-6.03-2.49-1.86-.8-3.49-1.72-4.86-2.76s-2.46-2.28-3.25-3.7c-.79-1.42-1.18-3.18-1.18-5.27,0-1.92.33-3.64,1-5.17.67-1.53,1.59-2.82,2.76-3.88,1.17-1.06,2.57-1.86,4.19-2.42,1.62-.56,3.36-.84,5.24-.84,1.25,0,2.47.13,3.67.4,1.2.27,2.34.66,3.43,1.18,1.09.52,2.1,1.15,3.04,1.91s1.78,1.62,2.54,2.58c.11.15.18.27.23.37.04.1.07.23.07.4,0,.07-.07.16-.19.29-.13.13-.28.28-.45.44-.17.16-.36.32-.57.48-.21.16-.37.3-.5.4-.24.17-.45.23-.65.18-.19-.05-.37-.16-.52-.31-1.31-1.44-2.77-2.59-4.36-3.43-1.59-.84-3.5-1.26-5.72-1.26-1.44,0-2.76.22-3.94.65-1.18.43-2.2,1.03-3.05,1.79-.85.76-1.51,1.67-1.97,2.73s-.69,2.22-.69,3.49c0,1.51.34,2.78,1.02,3.81s1.63,1.95,2.86,2.75c1.23.8,2.69,1.54,4.38,2.23s3.54,1.44,5.54,2.26c1.77.73,3.38,1.5,4.83,2.31,1.46.81,2.69,1.72,3.72,2.73s1.82,2.17,2.38,3.46c.56,1.29.84,2.79.84,4.49,0,2.22-.41,4.17-1.23,5.87-.82,1.69-1.93,3.11-3.35,4.27-1.41,1.15-3.07,2.02-4.98,2.6-1.91.58-3.94.87-6.09.87-3.25,0-6.21-.66-8.87-1.99s-4.97-3.5-6.93-6.51c-.11-.15-.19-.29-.24-.42s-.08-.28-.08-.45c0-.28.15-.51.45-.68Z"/>
      <path class="cls-4" d="m786.08,246.26c.17-.22.4-.45.68-.7.28-.25.58-.37.91-.37.11,0,.31.05.6.16.29.11.5.25.63.42.8,1.1,1.63,2.08,2.49,2.94s1.8,1.58,2.83,2.17,2.14,1.02,3.36,1.33c1.22.3,2.59.45,4.12.45,1.66,0,3.22-.19,4.69-.58,1.46-.39,2.75-.99,3.85-1.79s1.97-1.84,2.62-3.1.97-2.75.97-4.48c0-1.33-.27-2.49-.81-3.47-.54-.98-1.27-1.85-2.2-2.62-.93-.76-2.01-1.44-3.25-2.02-1.24-.58-2.55-1.15-3.93-1.71-2.15-.86-4.16-1.69-6.03-2.49-1.86-.8-3.49-1.72-4.86-2.76s-2.46-2.28-3.25-3.7c-.79-1.42-1.18-3.18-1.18-5.27,0-1.92.33-3.64,1-5.17.67-1.53,1.59-2.82,2.76-3.88,1.17-1.06,2.57-1.86,4.19-2.42,1.62-.56,3.36-.84,5.24-.84,1.25,0,2.47.13,3.67.4,1.2.27,2.34.66,3.43,1.18,1.09.52,2.1,1.15,3.04,1.91s1.78,1.62,2.54,2.58c.11.15.18.27.23.37.04.1.07.23.07.4,0,.07-.07.16-.19.29-.13.13-.28.28-.45.44-.17.16-.36.32-.57.48-.21.16-.37.3-.5.4-.24.17-.45.23-.65.18-.19-.05-.37-.16-.52-.31-1.31-1.44-2.77-2.59-4.36-3.43-1.59-.84-3.5-1.26-5.72-1.26-1.44,0-2.76.22-3.94.65-1.18.43-2.2,1.03-3.05,1.79-.85.76-1.51,1.67-1.97,2.73s-.69,2.22-.69,3.49c0,1.51.34,2.78,1.02,3.81s1.63,1.95,2.86,2.75c1.23.8,2.69,1.54,4.38,2.23s3.54,1.44,5.54,2.26c1.77.73,3.38,1.5,4.83,2.31,1.46.81,2.69,1.72,3.72,2.73s1.82,2.17,2.38,3.46c.56,1.29.84,2.79.84,4.49,0,2.22-.41,4.17-1.23,5.87-.82,1.69-1.93,3.11-3.35,4.27-1.41,1.15-3.07,2.02-4.98,2.6-1.91.58-3.94.87-6.09.87-3.25,0-6.21-.66-8.87-1.99s-4.97-3.5-6.93-6.51c-.11-.15-.19-.29-.24-.42s-.08-.28-.08-.45c0-.28.15-.51.45-.68Z"/>
      <path class="cls-4" d="m857.86,207.38c.82,0,1.23.4,1.23,1.2v1.13c0,.37-.1.66-.31.87-.21.22-.51.32-.92.32h-28.8v24.11h23.27c.37,0,.66.1.89.29.23.19.34.51.34.94v1.16c0,.37-.11.66-.32.87s-.52.32-.9.32h-23.27v13.25h29.31c.82,0,1.23.4,1.23,1.2v1.16c0,.78-.4,1.16-1.2,1.16h-31.9c-.37,0-.63-.1-.79-.31-.16-.21-.24-.48-.24-.82v-45.7c0-.5.12-.81.37-.95.25-.14.52-.21.82-.21h31.19Z"/>
      <path class="cls-4" d="m902.75,225.51c0,1.51-.18,3-.55,4.46-.37,1.47-.9,2.86-1.62,4.17-.71,1.31-1.58,2.54-2.62,3.67-1.03,1.13-2.22,2.11-3.55,2.92l6.21,13.12s.04.13.06.26c.02.13.03.24.03.32,0,.24-.08.45-.24.65-.16.19-.39.29-.7.29h-1.91c-.41,0-.72-.23-.94-.68l-5.82-12.31c-2,.8-4.29,1.2-6.85,1.2h-13.19v10.57c0,.82-.42,1.23-1.26,1.23h-1.2c-.82,0-1.23-.41-1.23-1.23v-45.44c0-.37.11-.67.34-.92.23-.25.49-.38.79-.4h15.74c2.84,0,5.41.51,7.69,1.52,2.28,1.01,4.23,2.36,5.83,4.06,1.6,1.69,2.83,3.62,3.68,5.8.85,2.18,1.28,4.43,1.28,6.75Zm-18.49,14.38c2.35,0,4.44-.4,6.27-1.21s3.38-1.88,4.64-3.23c1.26-1.35,2.22-2.88,2.89-4.61s1-3.5,1-5.33-.33-3.61-1-5.35-1.63-3.28-2.89-4.64c-1.26-1.36-2.81-2.45-4.64-3.26-1.83-.82-3.92-1.23-6.27-1.23h-13.19v28.86h13.19Z"/>
      <path class="cls-4" d="m912.8,208.55c0-.37.1-.65.31-.86.2-.21.5-.31.89-.31h1.16c.37,0,.66.1.87.31.21.21.32.49.32.86v45.67c0,.78-.4,1.16-1.2,1.16h-1.16c-.8,0-1.2-.39-1.2-1.16v-45.67Z"/>
      <path class="cls-4" d="m959.05,207.38c.82,0,1.23.4,1.23,1.2v1.13c0,.37-.1.66-.31.87-.21.22-.51.32-.92.32h-28.8v24.11h23.27c.37,0,.66.1.89.29.23.19.34.51.34.94v1.16c0,.37-.11.66-.32.87s-.52.32-.9.32h-23.27v13.25h29.31c.82,0,1.23.4,1.23,1.2v1.16c0,.78-.4,1.16-1.2,1.16h-31.9c-.37,0-.63-.1-.79-.31-.16-.21-.24-.48-.24-.82v-45.7c0-.5.12-.81.37-.95.25-.14.52-.21.82-.21h31.19Z"/>
    </g>
  </g>
</svg>