<?xml version="1.0" encoding="UTF-8"?>
<svg id="Ebene_2" data-name="Ebene 2" xmlns="http://www.w3.org/2000/svg" viewBox="0 0 263 331.29">
  <defs>
    <style>
      .cls-1 {
        fill: #2c6e49;
      }

      .cls-2 {
        stroke: #000;
        stroke-width: 3px;
      }

      .cls-2, .cls-3 {
        fill: none;
        stroke-miterlimit: 10;
      }

      .cls-3 {
        stroke: #6c4429;
        stroke-width: 5px;
      }
    </style>
  </defs>
  <g id="LOGO_3" data-name="LOGO 3">
    <g id="gesicht">
      <path d="m129.83,167.7c1.18,3.56-.45,7.66-4.29,8.55-1.59.37-3.31.02-4.51-1.11s-1.87-2.79-1.59-4.27c.15-.8-.22-1.62-1.05-1.85-.73-.2-1.7.25-1.85,1.05-.74,4,1.84,8.17,5.86,9.1s8.48-1.43,10.09-5.36c.89-2.17.96-4.68.22-6.9-.25-.77-1.04-1.27-1.85-1.05-.75.21-1.3,1.07-1.05,1.85h0Z"/>
      <path d="m132.05,166.69c-1.33,4.02.03,8.74,3.64,11.08,3.42,2.22,8.25,1.79,10.86-1.46,1.48-1.84,2.11-4.11,1.68-6.45-.15-.8-1.11-1.25-1.85-1.05-.84.23-1.2,1.05-1.05,1.85.13.71.04,1.49-.24,2.26-.25.7-.73,1.41-1.29,1.95-1.21,1.17-2.95,1.55-4.58,1.17-3.83-.89-5.47-4.99-4.29-8.55.25-.77-.3-1.64-1.05-1.85-.82-.22-1.59.28-1.85,1.05h0Z"/>
      <path d="m140.07,152.48c-2.67,4.92-5.79,9.6-9.34,13.94-.51.63-.61,1.51,0,2.12.53.53,1.61.63,2.12,0,3.72-4.53,7.01-9.39,9.81-14.54.92-1.7-1.67-3.21-2.59-1.51h0Z"/>
      <path d="m122.07,153.28c.75,5.92,4.02,11.24,9.06,14.48,1.63,1.05,3.13-1.55,1.51-2.59-4.06-2.61-6.96-7.08-7.57-11.89-.1-.8-.62-1.5-1.5-1.5-.73,0-1.6.69-1.5,1.5h0Z"/>
      <path d="m124.85,154.24c4.04-2.82,9.51-3.02,13.72-.43,1.65,1.02,3.16-1.58,1.51-2.59-5.05-3.11-11.87-2.97-16.75.43-.66.46-.97,1.31-.54,2.05.38.66,1.38,1,2.05.54h0Z"/>
      <ellipse cx="169.46" cy="112.7" rx="9" ry="14"/>
      <ellipse cx="93.46" cy="112.7" rx="9" ry="14"/>
      <path class="cls-3" d="m130.96,6.2c-8.41.08-50.81,1.32-82,35-17.29,18.68-23.55,39.15-26,50"/>
      <path class="cls-3" d="m167.96,12.2c8.65,2.73,33.97,11.96,53,38,20.46,28,20.35,57.27,20,66"/>
    </g>
    <path id="kopf" class="cls-3" d="m241,111c0-9.2-1.24-18.12-3.57-26.62,13.66-6.65,23.07-20.67,23.07-36.88,0-22.64-18.35-41-41-41-12.63,0-23.93,5.71-31.45,14.7h-.01c-16.63-9.65-36.15-15.2-57.04-15.2-19.7,0-38.2,4.94-54.19,13.61C69.38,9.25,57.23,2.5,43.5,2.5,20.86,2.5,2.5,20.86,2.5,43.5c0,16.27,9.48,30.33,23.23,36.96-3.08,9.67-4.73,19.92-4.73,30.54,0,2.24.07,4.47.23,6.67-7.52,12.07-11.73,25.58-11.73,39.83,0,51.36,54.62,93,122,93s122-41.64,122-93c0-14.82-4.55-28.83-12.63-41.26.08-1.73.13-3.48.13-5.24Z"/>
    <g id="schal">
      <g>
        <path class="cls-1" d="m238.09,265.66c-1.32,10.71-4.31,22.04-12.52,29.05-9.23,7.87-22.5,8.27-34.63,8.26-22-.03-44.41-.24-66.42-2.34l2.37.68c.15,4.62.27,9.24.35,13.86.07,3.71,0,7.74-2.26,10.67-3.39,4.38-9.93,4.31-15.4,3.52-10.16-1.47-20.17-4.03-29.79-7.62-2.48-.92-4.94-1.92-7.52-2.47-2.97-.63-6.03-.67-9.06-.9-5.16-.4-10.29-1.37-15.24-2.9-2.02-.62-4.09-1.38-5.56-2.89-1.21-1.24-1.91-2.87-2.51-4.49-3.77-10.05-4.78-21.12-2.91-31.69-3.79-2.1-7.47-4.44-10.57-7.45-8.06-7.83-11.44-19.61-10.86-30.82.57-11.21,4.71-21.97,9.89-31.93h.59s207.85,4.76,207.85,4.76c-1.08-.51-.46-2.82-.13-1.66,5.18,18.25,6.66,37.53,4.33,56.36Z"/>
        <path d="m236.59,265.66c-.95,7.61-2.69,15.45-6.87,21.98-4.28,6.69-11.03,10.56-18.66,12.28s-16.17,1.56-24.24,1.54c-9.77-.03-19.55-.11-29.32-.39-11.01-.32-22.01-.9-32.97-1.94-1.72-.16-1.98,2.49-.4,2.95.79.23,1.58.45,2.37.68l-1.1-1.45c.17,5.15.38,10.31.37,15.47-.01,3.95-.63,8.18-4.45,10.2-3.19,1.69-7.22,1.45-10.68,1.02-4.91-.61-9.79-1.63-14.59-2.81s-9.6-2.64-14.28-4.32c-2.35-.85-4.66-1.81-7.05-2.52s-4.75-1.01-7.17-1.19c-5.1-.38-10.08-.79-15.07-2-2.24-.54-4.62-1.09-6.72-2.09s-3.19-2.43-4.03-4.43c-4.14-9.9-5.09-21.31-3.27-31.83.11-.65-.07-1.35-.69-1.69-4.47-2.49-8.77-5.3-12.14-9.2-3.06-3.54-5.26-7.79-6.65-12.24-3.04-9.7-2.23-20.01.66-29.64,1.78-5.92,4.29-11.58,7.13-17.07l-1.3.74c1.95.03,3.9.09,5.86.13,4.97.11,9.94.23,14.92.34,7.45.17,14.9.34,22.34.51l27.25.62c9.97.23,19.94.46,29.9.68s20.23.46,30.35.69c9.4.21,18.81.43,28.21.64,7.98.18,15.97.36,23.95.55,5.72.13,11.44.26,17.16.39,2.71.06,5.43.19,8.14.19.12,0,.24,0,.35,0,1.54.04,1.98-2.03.76-2.8.33.21,0,.18.14.14,0-.11,0-.14,0-.09-.1.35-.37.59-.82.71l-1.16-.15c-.49-.75-.61-.79-.36-.12.09.3.17.61.25.91.17.61.33,1.22.49,1.83.28,1.07.54,2.15.79,3.22.54,2.31,1.02,4.63,1.44,6.96.85,4.69,1.46,9.42,1.82,14.17.73,9.46.5,18.98-.65,28.4-.23,1.91,2.77,1.9,3,0,2.27-18.57.89-37.57-4.06-55.62-.22-.82-.36-1.88-1.18-2.34s-1.75-.15-2.22.61c-.81,1.31-.23,3.17,1,3.94l.76-2.8c-1.87-.04-3.74-.09-5.61-.13l-15.19-.35c-7.51-.17-15.03-.34-22.54-.52-9.12-.21-18.25-.42-27.37-.63-9.98-.23-19.97-.46-29.95-.68-10.11-.23-20.21-.46-30.32-.69-9.37-.21-18.74-.43-28.11-.64-7.92-.18-15.85-.36-23.77-.54-5.63-.13-11.27-.26-16.9-.39-2.6-.06-5.21-.12-7.81-.18-.29,0-.57-.01-.86-.02-.51,0-1.06.29-1.3.74-5.27,10.17-9.51,21.13-10.09,32.69-.5,9.91,1.98,20.28,8.08,28.23,3.75,4.88,8.76,8.36,14.09,11.33l-.69-1.69c-1.76,10.19-1.07,20.75,2.23,30.56.76,2.25,1.54,4.61,3.06,6.48,1.43,1.77,3.5,2.77,5.61,3.51,4.94,1.71,10.18,2.69,15.37,3.2,2.7.26,5.42.29,8.11.63s5.22,1.21,7.73,2.15c5.1,1.91,10.25,3.64,15.52,5.02s10.62,2.49,16.02,3.25c3.91.56,8.13.89,11.91-.49,4.76-1.73,7.08-5.83,7.54-10.72.27-2.86.08-5.78.02-8.64-.07-3.22-.16-6.44-.27-9.65-.02-.67-.45-1.26-1.1-1.45-.79-.23-1.58-.45-2.37-.68l-.4,2.95c20.22,1.92,40.54,2.26,60.83,2.33,15.98.05,35,.8,45.66-13.43,5.45-7.27,7.47-16.52,8.58-25.37.24-1.91-2.76-1.89-3,0Z"/>
      </g>
      <path class="cls-2" d="m34.96,275.2c13.52,6.33,30.28,12.9,50,18,17.06,4.41,32.64,6.78,46,8"/>
    </g>
  </g>
</svg>