<?xml version="1.0" encoding="UTF-8"?>
<svg id="Ebene_2" data-name="Ebene 2" xmlns="http://www.w3.org/2000/svg" viewBox="0 0 410.99 408.15">
  <defs>
    <style>
      .cls-1 {
        fill: #2c6e49;
      }

      .cls-2 {
        stroke: #000;
        stroke-width: 3px;
      }

      .cls-2, .cls-3 {
        fill: none;
        stroke-miterlimit: 10;
      }

      .cls-3 {
        stroke: #6c4429;
        stroke-width: 5px;
      }
    </style>
  </defs>
  <g id="LOGO_2" data-name="LOGO 2">
    <g id="gesicht">
      <path d="m199.35,167.7c1.18,3.56-.45,7.66-4.29,8.55-1.59.37-3.31.02-4.51-1.11s-1.87-2.79-1.59-4.27c.15-.8-.22-1.62-1.05-1.85-.73-.2-1.7.25-1.85,1.05-.74,4,1.84,8.17,5.86,9.1s8.48-1.43,10.09-5.36c.89-2.17.96-4.68.22-6.9-.25-.77-1.04-1.27-1.85-1.05-.75.21-1.3,1.07-1.05,1.85h0Z"/>
      <path d="m201.57,166.69c-1.33,4.02.03,8.74,3.64,11.08,3.42,2.22,8.25,1.79,10.86-1.46,1.48-1.84,2.11-4.11,1.68-6.45-.15-.8-1.11-1.25-1.85-1.05-.84.23-1.2,1.05-1.05,1.85.13.71.04,1.49-.24,2.26-.25.7-.73,1.41-1.29,1.95-1.21,1.17-2.95,1.55-4.58,1.17-3.83-.89-5.47-4.99-4.29-8.55.25-.77-.3-1.64-1.05-1.85-.82-.22-1.59.28-1.85,1.05h0Z"/>
      <path d="m209.59,152.48c-2.67,4.92-5.79,9.6-9.34,13.94-.51.63-.61,1.51,0,2.12.53.53,1.61.63,2.12,0,3.72-4.53,7.01-9.39,9.81-14.54.92-1.7-1.67-3.21-2.59-1.51h0Z"/>
      <path d="m191.58,153.28c.75,5.92,4.02,11.24,9.06,14.48,1.63,1.05,3.13-1.55,1.51-2.59-4.06-2.61-6.96-7.08-7.57-11.89-.1-.8-.62-1.5-1.5-1.5-.73,0-1.6.69-1.5,1.5h0Z"/>
      <path d="m194.37,154.24c4.04-2.82,9.51-3.02,13.72-.43,1.65,1.02,3.16-1.58,1.51-2.59-5.05-3.11-11.87-2.97-16.75.43-.66.46-.97,1.31-.54,2.05.38.66,1.38,1,2.05.54h0Z"/>
      <ellipse cx="238.98" cy="112.7" rx="9" ry="14"/>
      <ellipse cx="162.98" cy="112.7" rx="9" ry="14"/>
      <path class="cls-3" d="m200.48,6.2c-8.41.08-50.81,1.32-82,35-17.29,18.68-23.55,39.15-26,50"/>
      <path class="cls-3" d="m237.48,12.2c8.65,2.73,33.97,11.96,53,38,20.46,28,20.35,57.27,20,66"/>
    </g>
    <path id="kopf" class="cls-3" d="m310.52,111c0-9.2-1.24-18.12-3.57-26.62,13.66-6.65,23.07-20.67,23.07-36.88,0-22.64-18.35-41-41-41-12.63,0-23.93,5.71-31.45,14.7h-.01c-16.63-9.65-36.15-15.2-57.04-15.2-19.7,0-38.2,4.94-54.19,13.61-7.43-10.36-19.58-17.11-33.31-17.11-22.64,0-41,18.36-41,41,0,16.27,9.48,30.33,23.23,36.96-3.08,9.67-4.73,19.92-4.73,30.54,0,2.24.07,4.47.23,6.67-7.52,12.07-11.73,25.58-11.73,39.83,0,51.36,54.62,93,122,93s122-41.64,122-93c0-14.82-4.55-28.83-12.63-41.26.08-1.73.13-3.48.13-5.24Z"/>
    <g id="schal">
      <g>
        <path class="cls-1" d="m307.61,265.66c-1.32,10.71-4.31,22.04-12.52,29.05-9.23,7.87-22.5,8.27-34.63,8.26-22-.03-44.41-.24-66.42-2.34l2.37.68c.15,4.62.27,9.24.35,13.86.07,3.71,0,7.74-2.26,10.67-3.39,4.38-9.93,4.31-15.4,3.52-10.16-1.47-20.17-4.03-29.79-7.62-2.48-.92-4.94-1.92-7.52-2.47-2.97-.63-6.03-.67-9.06-.9-5.16-.4-10.29-1.37-15.24-2.9-2.02-.62-4.09-1.38-5.56-2.89-1.21-1.24-1.91-2.87-2.51-4.49-3.77-10.05-4.78-21.12-2.91-31.69-3.79-2.1-7.47-4.44-10.57-7.45-8.06-7.83-11.44-19.61-10.86-30.82.57-11.21,4.71-21.97,9.89-31.93h.59s207.85,4.76,207.85,4.76c-1.08-.51-.46-2.82-.13-1.66,5.18,18.25,6.66,37.53,4.33,56.36Z"/>
        <path d="m306.11,265.66c-.95,7.61-2.69,15.45-6.87,21.98s-11.03,10.56-18.66,12.28-16.17,1.56-24.24,1.54c-9.77-.03-19.55-.11-29.32-.39-11.01-.32-22.01-.9-32.97-1.94-1.72-.16-1.98,2.49-.4,2.95l2.37.68-1.1-1.45c.17,5.15.38,10.31.37,15.47-.01,3.95-.63,8.18-4.45,10.2-3.19,1.69-7.22,1.45-10.68,1.02-4.91-.61-9.79-1.63-14.59-2.81s-9.6-2.64-14.28-4.32c-2.35-.85-4.66-1.81-7.05-2.52s-4.75-1.01-7.17-1.19c-5.1-.38-10.08-.79-15.07-2-2.24-.54-4.62-1.09-6.72-2.09s-3.19-2.43-4.03-4.43c-4.14-9.9-5.09-21.31-3.27-31.83.11-.65-.07-1.35-.69-1.69-4.47-2.49-8.77-5.3-12.14-9.2-3.06-3.54-5.26-7.79-6.65-12.24-3.04-9.7-2.23-20.01.66-29.64,1.78-5.92,4.29-11.58,7.13-17.07l-1.3.74c1.95.03,3.9.09,5.86.13,4.97.11,9.94.23,14.92.34,7.45.17,14.9.34,22.34.51,9.08.21,18.17.42,27.25.62,9.97.23,19.94.46,29.9.68s20.23.46,30.35.69c9.4.21,18.81.43,28.21.64,7.98.18,15.97.36,23.95.55,5.72.13,11.44.26,17.16.39,2.71.06,5.43.19,8.14.19.12,0,.24,0,.35,0,1.54.04,1.98-2.03.76-2.8.33.21,0,.18.14.14,0-.11,0-.14,0-.09-.1.35-.37.59-.82.71l-1.16-.15c-.49-.75-.61-.79-.36-.12.09.3.17.61.25.91.17.61.33,1.22.49,1.83.28,1.07.54,2.15.79,3.22.54,2.31,1.02,4.63,1.44,6.96.85,4.69,1.46,9.42,1.82,14.17.73,9.46.5,18.98-.65,28.4-.23,1.91,2.77,1.9,3,0,2.27-18.57.89-37.57-4.06-55.62-.22-.82-.36-1.88-1.18-2.34s-1.75-.15-2.22.61c-.81,1.31-.23,3.17,1,3.94l.76-2.8c-1.87-.04-3.74-.09-5.61-.13-5.06-.12-10.13-.23-15.19-.35l-22.54-.52c-9.12-.21-18.25-.42-27.37-.63-9.98-.23-19.97-.46-29.95-.68l-30.32-.69c-9.37-.21-18.74-.43-28.11-.64-7.92-.18-15.85-.36-23.77-.54-5.63-.13-11.27-.26-16.9-.39-2.6-.06-5.21-.12-7.81-.18-.29,0-.57-.01-.86-.02-.51,0-1.06.29-1.3.74-5.27,10.17-9.51,21.13-10.09,32.69-.5,9.91,1.98,20.28,8.08,28.23,3.75,4.88,8.76,8.36,14.09,11.33l-.69-1.69c-1.76,10.19-1.07,20.75,2.23,30.56.76,2.25,1.54,4.61,3.06,6.48,1.43,1.77,3.5,2.77,5.61,3.51,4.94,1.71,10.18,2.69,15.37,3.2,2.7.26,5.42.29,8.11.63s5.22,1.21,7.73,2.15c5.1,1.91,10.25,3.64,15.52,5.02s10.62,2.49,16.02,3.25c3.91.56,8.13.89,11.91-.49,4.76-1.73,7.08-5.83,7.54-10.72.27-2.86.08-5.78.02-8.64-.07-3.22-.16-6.44-.27-9.65-.02-.67-.45-1.26-1.1-1.45l-2.37-.68-.4,2.95c20.22,1.92,40.54,2.26,60.83,2.33,15.98.05,35,.8,45.66-13.43,5.45-7.27,7.47-16.52,8.58-25.37.24-1.91-2.76-1.89-3,0Z"/>
      </g>
      <path class="cls-2" d="m104.48,275.2c13.52,6.33,30.28,12.9,50,18,17.06,4.41,32.64,6.78,46,8"/>
    </g>
    <g id="cozy_bear" data-name="cozy bear">
      <g>
        <path d="m38.19,366.02c.33.25.5.54.5.87,0,.19-.1.41-.31.68-.04.04-.11.14-.22.29-.1.15-.23.32-.39.5-.16.18-.32.34-.48.48-.17.15-.32.22-.46.22h-.12c-.06,0-.15-.02-.25-.05-.1-.03-.23-.1-.37-.2-1.78-1.36-3.68-2.43-5.72-3.21-2.04-.77-4.21-1.16-6.53-1.16-1.9,0-3.73.24-5.47.73-1.75.48-3.38,1.17-4.9,2.06-1.52.89-2.89,1.95-4.12,3.19-1.23,1.24-2.28,2.61-3.16,4.11-.88,1.5-1.56,3.1-2.03,4.8-.48,1.7-.71,3.47-.71,5.29,0,1.86.24,3.64.73,5.35.49,1.71,1.17,3.3,2.06,4.79.89,1.49,1.95,2.84,3.18,4.06,1.23,1.22,2.59,2.26,4.08,3.13,1.49.87,3.07,1.54,4.76,2.01,1.68.48,3.44.71,5.25.71,4.26,0,8.33-1.4,12.21-4.19.26-.14.52-.29.77-.43.21-.1.37-.16.5-.16.14,0,.32.08.51.25.2.17.39.37.57.6.19.24.34.49.46.76.12.27.19.51.19.71,0,.19-.05.35-.16.48-.1.13-.24.28-.4.42-2.05,1.59-4.28,2.83-6.71,3.71-2.43.88-5.06,1.32-7.89,1.32-3.27,0-6.33-.61-9.19-1.84-2.86-1.23-5.36-2.91-7.49-5.05-2.13-2.14-3.81-4.64-5.04-7.5C.61,390.88,0,387.82,0,384.55c0-2.17.28-4.26.84-6.26.56-2,1.35-3.88,2.37-5.63,1.02-1.75,2.25-3.34,3.69-4.79,1.44-1.45,3.03-2.68,4.77-3.7,1.75-1.02,3.63-1.82,5.64-2.39,2.01-.57,4.11-.85,6.28-.85,2.77,0,5.37.45,7.81,1.36,2.44.91,4.7,2.15,6.79,3.72Z"/>
        <path d="m48.48,384.55c0-2.17.28-4.26.84-6.28.56-2.02,1.35-3.9,2.37-5.64,1.02-1.75,2.25-3.34,3.69-4.77,1.44-1.44,3.03-2.67,4.77-3.69,1.75-1.02,3.63-1.82,5.64-2.39,2.01-.57,4.11-.85,6.28-.85,2.17,0,4.26.28,6.28.85,2.01.57,3.9,1.36,5.64,2.39,1.75,1.02,3.34,2.25,4.77,3.69,1.44,1.44,2.67,3.03,3.69,4.77,1.02,1.75,1.82,3.63,2.39,5.64.57,2.01.85,4.11.85,6.28,0,2.17-.28,4.26-.85,6.26-.57,2-1.36,3.88-2.39,5.63-1.02,1.75-2.25,3.34-3.69,4.77s-3.03,2.67-4.77,3.69c-1.75,1.02-3.63,1.81-5.64,2.37-2.01.56-4.11.84-6.28.84-2.17,0-4.26-.28-6.28-.84-2.02-.56-3.9-1.35-5.64-2.37-1.75-1.02-3.34-2.25-4.77-3.69-1.44-1.44-2.67-3.03-3.69-4.77-1.02-1.75-1.81-3.62-2.37-5.63-.56-2-.84-4.09-.84-6.26Zm3.44,0c0,2.77.53,5.38,1.58,7.83,1.05,2.45,2.5,4.58,4.33,6.4,1.83,1.82,3.97,3.25,6.42,4.31,2.45,1.05,5.06,1.58,7.83,1.58,1.84,0,3.62-.24,5.35-.71,1.73-.47,3.33-1.15,4.82-2.03,1.49-.88,2.85-1.93,4.08-3.16,1.23-1.23,2.28-2.59,3.16-4.08.88-1.49,1.56-3.08,2.05-4.79.49-1.7.73-3.49.73-5.35,0-2.77-.53-5.38-1.6-7.83-1.06-2.45-2.51-4.59-4.34-6.42-1.83-1.83-3.97-3.28-6.42-4.34-2.45-1.06-5.06-1.6-7.83-1.6-1.86,0-3.64.24-5.35.73-1.71.49-3.31,1.17-4.8,2.05-1.5.88-2.86,1.93-4.09,3.16-1.23,1.23-2.28,2.59-3.15,4.08-.87,1.49-1.55,3.1-2.03,4.82-.49,1.73-.73,3.51-.73,5.35Z"/>
        <path d="m108.53,407.53c-.23,0-.46-.05-.71-.16-.25-.1-.37-.33-.37-.68,0-.14.04-.29.12-.43.08-.14.18-.28.28-.4,4.67-6.88,9.33-13.71,13.97-20.49,4.64-6.78,9.3-13.61,14-20.49-8.13,0-16.26,0-24.4,0-.81,0-1.21-.39-1.21-1.18v-1.08c0-.74.4-1.12,1.21-1.12h28.74c.21,0,.43.05.67.16.24.1.37.34.39.71,0,.14-.04.28-.12.42-.08.13-.18.26-.28.39-9.28,13.66-18.56,27.32-27.84,40.98h27.75c.76,0,1.15.38,1.15,1.15,0,.36,0,.72,0,1.08,0,.35-.1.63-.31.84-.21.21-.49.31-.84.31h-32.18Z"/>
        <path d="m153.23,362.98c-.19-.27-.28-.52-.28-.74,0-.23.1-.42.31-.57.21-.16.43-.23.68-.23.25,0,.5-.01.76-.03.26-.02.52-.02.78.02.26.03.51.11.74.25.24.13.45.36.64.67.41.68.83,1.36,1.24,2.05,1.98,3.39,3.96,6.75,5.94,10.09,1.97,3.34,3.96,6.69,5.97,10.06,2.13-3.6,4.24-7.16,6.34-10.68,2.1-3.52,4.21-7.07,6.34-10.65.14-.25.27-.48.39-.7.11-.22.25-.4.42-.56.17-.15.38-.28.63-.37.26-.09.62-.14,1.1-.14.21,0,.42,0,.65,0,.23,0,.43.02.6.06.18.04.32.11.43.2.11.09.17.24.17.45,0,.08-.02.19-.05.31-.03.12-.1.26-.2.4-2.54,4.18-5.05,8.37-7.53,12.59-2.48,4.22-5,8.41-7.56,12.59v18.35c0,.77-.37,1.15-1.12,1.15h-1.18c-.74,0-1.12-.38-1.12-1.15v-18.23c-5.03-8.39-10.06-16.78-15.1-25.17Z"/>
        <path d="m260.46,372.74c0,2.11-.5,3.92-1.49,5.42-.99,1.51-2.29,2.8-3.91,3.88,1.14.43,2.2,1.03,3.18,1.8.98.77,1.84,1.67,2.57,2.73.73,1.05,1.31,2.25,1.74,3.6.42,1.34.63,2.82.63,4.43,0,1.86-.32,3.57-.98,5.15-.65,1.57-1.54,2.93-2.68,4.08-1.14,1.15-2.46,2.05-3.97,2.7-1.51.65-3.11.99-4.8,1.01h-21.17c-.29-.02-.52-.11-.68-.28-.16-.16-.26-.37-.28-.62v-43.99c0-.48.11-.79.34-.93.23-.14.45-.22.68-.22h18.72c1.67,0,3.25.27,4.73.81,1.48.54,2.76,1.3,3.84,2.29,1.08.99,1.94,2.18,2.57,3.56.63,1.38.95,2.91.95,4.59Zm-3.38.06c0-1.34-.27-2.52-.81-3.52-.54-1-1.27-1.83-2.19-2.5-.92-.66-2-1.15-3.24-1.47-1.24-.32-2.57-.48-4-.48h-14.82v16.12h16.31c1.22,0,2.36-.19,3.43-.57,1.06-.38,1.99-.93,2.77-1.64.79-.71,1.41-1.57,1.86-2.57.46-1,.68-2.12.68-3.36Zm-25.05,11.5v19.84h18.75s-.03.01-.03.03c1.18-.04,2.31-.28,3.41-.71,1.09-.44,2.06-1.06,2.88-1.86.83-.81,1.49-1.79,1.98-2.96.5-1.17.74-2.5.74-3.98,0-1.49-.26-2.87-.78-4.14-.52-1.27-1.2-2.37-2.05-3.29-.85-.92-1.82-1.64-2.93-2.16-1.11-.52-2.26-.77-3.46-.77-6.18,0-12.36,0-18.54,0Z"/>
        <path d="m309.53,361.49c.79,0,1.18.38,1.18,1.15v1.08c0,.35-.1.63-.29.84-.2.21-.49.31-.88.31-9.21,0-18.41,0-27.62,0,0,7.71,0,15.42,0,23.13h22.32c.35,0,.64.09.85.28.22.19.33.49.33.9v1.12c0,.35-.1.63-.31.84-.21.21-.5.31-.87.31-7.44,0-14.88,0-22.32,0,0,4.24,0,8.47,0,12.71h28.12c.78,0,1.18.38,1.18,1.15,0,.37,0,.74,0,1.12,0,.74-.38,1.12-1.15,1.12h-30.6c-.35,0-.6-.1-.76-.29-.16-.2-.23-.46-.23-.79v-43.83c0-.48.12-.78.36-.92.24-.13.5-.2.79-.2h29.92Z"/>
        <path d="m359.16,406.69c-.41-.99-.83-1.99-1.24-3.01-.41-1.01-.83-2.03-1.24-3.04h-27.56c-.82,1.97-1.63,3.95-2.45,5.92-.29.64-.69.96-1.21.96-.7,0-1.26-.1-1.67-.29-.41-.2-.62-.43-.62-.7,0-.19.04-.36.12-.53,6.03-14.43,12.07-28.85,18.1-43.28.08-.19.19-.4.31-.65.12-.25.25-.48.39-.7.13-.22.27-.4.42-.54.14-.15.28-.22.4-.22.41,0,.72.23.93.68,6.22,14.92,12.44,29.84,18.66,44.76.04.06.07.16.09.28.02.12.03.23.03.31,0,.23-.24.43-.71.6-.48.18-1.01.26-1.61.26-.54,0-.92-.28-1.15-.84Zm-28.64-9.46c8.25,0,16.49,0,24.74,0-3.76-9.07-7.52-18.15-11.28-27.22-.17-.41-.34-.83-.51-1.26-.18-.42-.36-.84-.54-1.26-.04,0-.06.02-.06.06-4.11,9.89-8.23,19.78-12.34,29.67Z"/>
        <path d="m410.99,378.88c0,1.45-.18,2.87-.53,4.28-.35,1.41-.87,2.74-1.55,4-.68,1.26-1.52,2.43-2.51,3.52-.99,1.08-2.13,2.02-3.41,2.81,1.98,4.2,3.97,8.39,5.95,12.59.02.04.04.12.06.25.02.12.03.23.03.31,0,.23-.08.43-.23.62-.15.19-.38.28-.67.28h-1.83c-.39,0-.69-.22-.9-.65-1.86-3.94-3.72-7.87-5.58-11.81-1.92.76-4.11,1.15-6.57,1.15-4.22,0-8.43,0-12.65,0v10.14c0,.78-.4,1.18-1.21,1.18h-1.15c-.79,0-1.18-.39-1.18-1.18v-43.59c0-.35.11-.65.33-.88.22-.24.47-.37.76-.39h15.1c2.73,0,5.19.49,7.38,1.46,2.19.97,4.06,2.27,5.6,3.89,1.54,1.62,2.72,3.48,3.53,5.56.82,2.09,1.22,4.25,1.22,6.48Zm-17.73,13.79c2.25,0,4.26-.39,6.01-1.16,1.76-.77,3.24-1.81,4.45-3.1,1.21-1.29,2.13-2.76,2.77-4.42.64-1.65.96-3.36.96-5.11,0-1.76-.32-3.47-.96-5.13-.64-1.66-1.57-3.15-2.77-4.45-1.21-1.3-2.69-2.35-4.45-3.13-1.76-.79-3.76-1.18-6.01-1.18h-12.65v27.68h12.65Z"/>
      </g>
    </g>
  </g>
</svg>